<?xml version="1.0" encoding="utf-8"?>
<!-- Generator: Adobe Illustrator 15.0.0, SVG Export Plug-In . SVG Version: 6.00 Build 0)  -->
<!DOCTYPE svg PUBLIC "-//W3C//DTD SVG 1.1//EN" "http://www.w3.org/Graphics/SVG/1.1/DTD/svg11.dtd">
<svg version="1.1" id="Layer_1" xmlns="http://www.w3.org/2000/svg" xmlns:xlink="http://www.w3.org/1999/xlink" x="0px" y="0px"
	 width="309.337px" height="150px" viewBox="90.663 0 309.337 150" enable-background="new 90.663 0 309.337 150"
	 xml:space="preserve">
<g>
	<path fill="#DC0000" d="M152.824,112.062c0,8.17,5.25,11.673,11.672,11.673c8.463,0,14.299-5.255,16.342-11.382
		c0.584-1.459,0.584-2.919,0.584-4.378V96.594C166.83,96.594,152.824,99.512,152.824,112.062z"/>
	<path fill="#DC0000" d="M250.584,68.872c-13.131,0-20.719,11.671-20.719,26.847s7.295,25.974,20.426,25.974
		c8.465,0,15.76-5.836,17.804-14.592c0.584-1.753,0.584-3.793,0.584-6.13V88.716c0-1.752-0.293-3.796-0.584-5.545
		C266.635,75.583,259.924,68.872,250.584,68.872z"/>
	<path fill="#DC0000" d="M120.723,35.604l2.625-3.795c3.794-5.544,7.588-11.089,11.09-15.758l-28.891,18.093
		c3.793,1.46,8.17,4.086,11.673,6.128C118.387,38.812,119.554,37.354,120.723,35.604z"/>
	<path fill="#DC0000" d="M177.337,0h-2.919c-10.798,0-12.257,0-16.344,3.21c-7.295,5.836-21.012,26.264-29.182,37.937
		c-7.295,10.507-9.339,12.549-9.339,12.549s-14.007-9.922-20.719-11.382c-0.876-0.292-1.751-0.292-2.628-0.292
		c-4.377,0-5.544,4.086-5.544,10.798V150h214.201V0H177.337z M184.341,136.574l-1.461-9.046h-0.584
		c-4.959,6.421-13.422,10.799-24.222,10.799c-16.342,0-25.679-11.967-25.679-24.225c0-20.427,18.384-30.932,48.442-30.932v-1.46
		c0-5.251-2.043-14.299-16.635-14.299c-8.171,0-16.341,2.626-21.887,6.128l-4.085-13.424c6.127-3.795,16.633-7.296,29.473-7.296
		c26.265,0,33.853,16.635,33.853,34.728v29.474c0,7.295,0.293,14.591,1.461,19.553H184.341z M271.887,136.574l-0.874-12.839h-0.293
		c-4.96,9.046-14.883,14.882-26.556,14.882c-19.554,0-35.02-16.634-35.02-41.73c-0.291-27.432,16.925-43.773,36.479-43.773
		c11.383,0,19.26,4.668,23.056,10.504h0.291V17.509h20.719v96.303c0,8.464,0.293,17.509,0.584,23.056h-18.386V136.574z"/>
	<path fill="#808080" d="M341.636,32.101c0,6.129-4.671,11.089-11.673,11.089c-7.006,0-11.384-4.96-11.384-11.089
		c0-6.42,4.669-11.381,11.675-11.381C336.965,20.72,341.343,25.68,341.636,32.101z M319.454,136.574V54.863h20.723v81.711H319.454z"
		/>
	<path fill="#808080" d="M380.447,33.853v21.011H400V70.33h-19.553v36.187c0,10.214,2.626,15.176,10.505,15.176
		c3.794,0,5.836-0.294,8.172-0.875l0.293,15.757c-2.92,1.168-8.465,2.043-14.885,2.043c-7.586,0-14.008-2.627-17.8-6.711
		c-4.669-4.671-6.423-12.258-6.423-23.055V70.33h-11.672V54.863h11.672V39.688L380.447,33.853z"/>
</g>
</svg>
