<?xml version="1.0" encoding="utf-8"?>
<!-- Generator: Adobe Illustrator 15.0.0, SVG Export Plug-In . SVG Version: 6.00 Build 0)  -->
<!DOCTYPE svg PUBLIC "-//W3C//DTD SVG 1.1//EN" "http://www.w3.org/Graphics/SVG/1.1/DTD/svg11.dtd">
<svg version="1.1" id="Layer_1" xmlns="http://www.w3.org/2000/svg" xmlns:xlink="http://www.w3.org/1999/xlink" x="0px" y="0px"
	 width="900px" height="150px" viewBox="1585.8 2012.4 900 150" enable-background="new 1585.8 2012.4 900 150"
	 xml:space="preserve">
<g>
	<g>
		<path fill="#AAAAAA" d="M1904.2,2019.9h-5c-0.6,0-1,0.5-1,1.1v39.2c0,0.6,0.5,1.1,1,1.1h5c3.4,0,6.1-2.7,6.1-6.1v-9.6
			c0-2-1-3.9-2.7-5c1.7-1.1,2.7-3,2.7-5v-9.6C1910.3,2022.6,1907.6,2019.9,1904.2,2019.9z M1904.2,2059.1h-3.9v-17.5h3.9
			c2.2,0,3.9,1.8,3.9,3.9v9.6C1908.2,2057.4,1906.4,2059.1,1904.2,2059.1z M1904.2,2039.5h-3.9V2022h3.9c2.2,0,3.9,1.8,3.9,3.9v9.6
			C1908.2,2037.7,1906.4,2039.5,1904.2,2039.5z"/>
		<path fill="#AAAAAA" d="M1922.8,2019.9h-5c-0.6,0-1.1,0.5-1.1,1.1v39.3c0,0.5,0.3,1,1,1h0.1c0.6,0,1-0.4,1-1v-18.6h3.9
			c2.2,0,3.9,1.8,3.9,3.9v14.7c0,0.6,0.4,1,1,1h0.1c0.7,0,1-0.5,1-1v-14.7c0-2-1-3.9-2.7-5c1.6-1.1,2.7-3,2.7-5v-9.6
			C1928.9,2022.6,1926.1,2019.9,1922.8,2019.9z M1922.8,2039.5h-3.9V2022h3.9c2.2,0,3.9,1.8,3.9,3.9v9.6
			C1926.7,2037.7,1924.9,2039.5,1922.8,2039.5z"/>
		<path fill="#AAAAAA" d="M1941.6,2019.9c-3.4,0-6.1,2.7-6.1,6.1v29.3c0,3.3,2.7,6,6.1,6c3.4,0,6-2.6,6-6V2026
			C1947.6,2022.6,1944.9,2019.9,1941.6,2019.9z M1941.6,2059.2c-2.2,0-3.9-1.8-3.9-3.9V2026c0-2.2,1.8-3.9,3.9-3.9s3.9,1.8,3.9,3.9
			v29.3C1945.5,2057.4,1943.7,2059.2,1941.6,2059.2z"/>
		<path fill="#AAAAAA" d="M1965.4,2019.9h-0.1c-0.5,0-1,0.5-1,1v34.3c0,2.2-1.8,3.9-3.9,3.9s-3.9-1.8-3.9-3.9v-34.3c0-0.6-0.4-1-1-1
			h-0.1c-0.6,0-1,0.5-1,1v34.3c0,3.3,2.7,6,6.1,6c3.4,0,6-2.6,6-6v-34.3C1966.4,2020.3,1966,2019.9,1965.4,2019.9z"/>
		<path fill="#AAAAAA" d="M1979.2,2019.9c-3.3,0-6,2.7-6,6.1v29.3c0,3.4,2.6,6,6,6c3.4,0,6.1-2.7,6.1-6v-14.8c0-0.5-0.5-1-1-1h-3.2
			c-0.5,0-1,0.5-1,1v0.2c0,0.5,0.5,1,1,1h2.1v13.7c0,2.2-1.8,3.9-3.9,3.9s-3.9-1.8-3.9-3.9V2026c0-2.2,1.8-3.9,3.9-3.9
			s3.9,1.8,3.9,3.9v1.1c0,0.6,0.4,1.1,1,1.1h0.1c0.6,0,1-0.5,1-1.1v-1.1C1985.3,2022.6,1982.5,2019.9,1979.2,2019.9z"/>
		<path fill="#AAAAAA" d="M2003,2019.9h-0.1c-0.5,0-1,0.5-1,1v18.6h-7.9v-18.6c0-0.6-0.4-1-1-1h-0.1c-0.5,0-1,0.5-1,1v39.4
			c0,0.6,0.4,1,1,1h0.1c0.6,0,1-0.4,1-1v-18.6h7.9v18.6c0,0.6,0.4,1,1,1h0.1c0.7,0,1-0.5,1-1v-39.4
			C2004,2020.3,2003.6,2019.9,2003,2019.9z"/>
		<path fill="#AAAAAA" d="M2018.5,2019.9h-7.4c-0.5,0-1,0.5-1,1v0.1c0,0.5,0.5,1,1,1h2.7v38.2c0,0.6,0.4,1,1,1h0.1c0.6,0,1-0.4,1-1
			V2022h2.7c0.5,0,1-0.5,1-1v-0.1C2019.5,2020.3,2019.1,2019.9,2018.5,2019.9z"/>
		<path fill="#AAAAAA" d="M2042.1,2019.9h-7.4c-0.5,0-1,0.5-1,1v0.1c0,0.5,0.5,1,1,1h2.7v38.2c0,0.6,0.4,1,1,1h0.1c0.6,0,1-0.4,1-1
			V2022h2.7c0.5,0,1-0.5,1-1v-0.1C2043.1,2020.3,2042.7,2019.9,2042.1,2019.9z"/>
		<path fill="#AAAAAA" d="M2053.5,2019.9c-3.4,0-6.1,2.7-6.1,6.1v29.3c0,3.3,2.7,6,6.1,6c3.4,0,6-2.6,6-6V2026
			C2059.5,2022.6,2056.8,2019.9,2053.5,2019.9z M2053.5,2059.2c-2.2,0-3.9-1.8-3.9-3.9V2026c0-2.2,1.8-3.9,3.9-3.9s3.9,1.8,3.9,3.9
			v29.3C2057.4,2057.4,2055.7,2059.2,2053.5,2059.2z"/>
		<path fill="#AAAAAA" d="M2085.4,2019.9h-0.1c-0.6,0-1,0.5-1,1v14.6c0,2.2-1.7,3.9-3.9,3.9c-2.2,0-3.9-1.8-3.9-3.9v-14.6
			c0-0.6-0.5-1-1-1h-0.1c-0.5,0-1,0.5-1,1v14.6c0,3,2.1,5.5,5,6v18.7c0,0.6,0.4,1,1,1h0.2c0.6,0,1-0.4,1-1v-18.7c2.8-0.5,5-3,5-6
			v-14.6C2086.4,2020.3,2086,2019.9,2085.4,2019.9z"/>
		<path fill="#AAAAAA" d="M2098.6,2019.9c-3.4,0-6.1,2.7-6.1,6.1v29.3c0,3.3,2.7,6,6.1,6c3.4,0,6-2.6,6-6V2026
			C2104.7,2022.6,2102,2019.9,2098.6,2019.9z M2098.6,2059.2c-2.2,0-3.9-1.8-3.9-3.9V2026c0-2.2,1.8-3.9,3.9-3.9s3.9,1.8,3.9,3.9
			v29.3C2102.6,2057.4,2100.8,2059.2,2098.6,2059.2z"/>
		<path fill="#AAAAAA" d="M2122.5,2019.9h-0.1c-0.5,0-1,0.5-1,1v34.3c0,2.2-1.8,3.9-3.9,3.9s-3.9-1.8-3.9-3.9v-34.3c0-0.6-0.4-1-1-1
			h-0.1c-0.6,0-1,0.5-1,1v34.3c0,3.3,2.7,6,6.1,6c3.4,0,6-2.6,6-6v-34.3C2123.5,2020.3,2123.1,2019.9,2122.5,2019.9z"/>
		<path fill="#AAAAAA" d="M2145,2019.9h-5c-0.6,0-1,0.5-1,1.1v39.2c0,0.6,0.5,1.1,1,1.1h5c3.4,0,6.1-2.7,6.1-6.1v-9.6
			c0-2-1-3.9-2.7-5c1.7-1.1,2.7-3,2.7-5v-9.6C2151,2022.6,2148.3,2019.9,2145,2019.9z M2145,2059.1h-3.9v-17.5h3.9
			c2.2,0,3.9,1.8,3.9,3.9v9.6C2148.9,2057.4,2147.1,2059.1,2145,2059.1z M2145,2039.5h-3.9V2022h3.9c2.2,0,3.9,1.8,3.9,3.9v9.6
			C2148.9,2037.7,2147.1,2039.5,2145,2039.5z"/>
		<path fill="#AAAAAA" d="M2168.2,2019.9h-0.1c-0.6,0-1,0.5-1,1v14.6c0,2.2-1.7,3.9-3.9,3.9c-2.2,0-3.9-1.8-3.9-3.9v-14.6
			c0-0.6-0.5-1-1-1h-0.1c-0.5,0-1,0.5-1,1v14.6c0,3,2.1,5.5,5,6v18.7c0,0.6,0.4,1,1,1h0.2c0.6,0,1-0.4,1-1v-18.7c2.8-0.5,5-3,5-6
			v-14.6C2169.2,2020.3,2168.8,2019.9,2168.2,2019.9z"/>
	</g>
	<g>
		<g>
			<path fill="#999999" d="M1677,2133.5h3v21.3h-3V2133.5z"/>
			<path fill="#999999" d="M1746.2,2133.5h2.8v21.3h-2.5l-14.2-16.4v16.4h-2.8v-21.3h2.4l14.3,16.6V2133.5z"/>
			<path fill="#999999" d="M1816.3,2149.7v3.4c-2.3,1.3-4.8,1.8-7.8,1.8c-2.4,0-4.4-0.4-6.1-1.4c-1.7-1-3-2.3-4-4
				c-1-1.7-1.4-3.5-1.4-5.4c0-3.1,1.1-5.7,3.3-7.8s5-3.1,8.2-3.1c2.3,0,4.7,0.6,7.5,1.7v3.3c-2.5-1.4-5-2.1-7.2-2.1
				c-2.4,0-4.4,0.7-6.1,2.3c-1.6,1.6-2.4,3.4-2.4,5.8c0,2.3,0.8,4.3,2.4,5.8c1.6,1.6,3.5,2.3,6.1,2.3
				C1811.3,2152.2,1813.9,2151.3,1816.3,2149.7z"/>
			<path fill="#999999" d="M1874.8,2133.2c3.3,0,6,1,8.2,3.1c2.1,2.1,3.3,4.7,3.3,7.8c0,3.1-1.1,5.7-3.3,7.8c-2.3,2-5,3.1-8.4,3.1
				c-3.3,0-5.8-1-8.1-3.1c-2.1-2.1-3.3-4.7-3.3-7.8c0-3.1,1.1-5.8,3.3-7.9C1868.9,2134.2,1871.5,2133.2,1874.8,2133.2z M1874.9,2136
				c-2.4,0-4.4,0.7-6,2.3s-2.4,3.4-2.4,5.8c0,2.3,0.8,4.2,2.4,5.7c1.6,1.4,3.5,2.3,6,2.3s4.4-0.7,5.9-2.3c1.6-1.6,2.4-3.5,2.4-5.8
				c0-2.3-0.8-4.1-2.4-5.7C1879.2,2136.8,1877.4,2136,1874.9,2136z"/>
			<path fill="#999999" d="M1934.6,2154.7v-21.3h5.4c2.1,0,3.8,0.6,5.1,1.6c1.3,1.1,1.8,2.6,1.8,4.4c0,1.3-0.3,2.3-1,3.3
				c-0.6,0.8-1.6,1.6-2.7,2c0.7,0.4,1.3,1,2,1.8c0.7,0.7,1.6,2.1,2.7,4c0.7,1.3,1.3,2.1,1.8,2.7l1.1,1.6h-3.7l-1-1.4
				c0,0-0.1-0.1-0.1-0.3l-0.6-0.9l-1-1.6l-1-1.7c-0.6-0.8-1.3-1.6-1.7-2.1c-0.6-0.6-1-0.8-1.4-1.1s-1.1-0.3-2.1-0.3h-0.8v9.2h-2.8
				V2154.7z M1938.6,2136h-0.8v6.7h1.1c1.6,0,2.6-0.1,3.1-0.4s1-0.7,1.3-1.1c0.3-0.6,0.4-1.1,0.4-1.8c0-0.7-0.1-1.3-0.6-1.8
				c-0.4-0.6-0.8-1-1.6-1.1C1941.1,2136.1,1940.1,2136,1938.6,2136z"/>
			<path fill="#999999" d="M1997.6,2154.7v-21.3h6.8c2,0,3.7,0.6,4.8,1.7c1.3,1.1,1.8,2.6,1.8,4.4c0,1.3-0.3,2.3-1,3.3
				c-0.6,1-1.4,1.7-2.5,2.1c-1.1,0.4-2.6,0.7-4.7,0.7h-2.3v9.2h-3V2154.7z M2003.7,2136.1h-3.1v6.7h3.4c1.3,0,2.1-0.3,2.8-0.8
				s1-1.4,1-2.6C2007.8,2137.3,2006.6,2136.1,2003.7,2136.1z"/>
			<path fill="#999999" d="M2068.5,2133.2c3.3,0,5.9,1,8.2,3.1c2.1,2.1,3.3,4.7,3.3,7.8c0,3.1-1.1,5.7-3.3,7.8c-2.3,2-5,3.1-8.4,3.1
				c-3.3,0-5.8-1-8.1-3.1c-2.1-2.1-3.3-4.7-3.3-7.8c0-3.1,1.1-5.8,3.3-7.9C2062.5,2134.2,2065.2,2133.2,2068.5,2133.2z M2068.6,2136
				c-2.4,0-4.4,0.7-5.9,2.3c-1.6,1.6-2.4,3.4-2.4,5.8c0,2.3,0.8,4.2,2.4,5.7c1.6,1.4,3.5,2.3,5.9,2.3s4.4-0.7,6-2.3
				c1.6-1.6,2.4-3.5,2.4-5.8c0-2.3-0.8-4.1-2.4-5.7C2072.9,2136.8,2070.9,2136,2068.6,2136z"/>
			<path fill="#999999" d="M2128.3,2154.7v-21.3h5.4c2.1,0,3.8,0.6,5.1,1.6c1.3,1.1,1.8,2.6,1.8,4.4c0,1.3-0.3,2.3-1,3.3
				c-0.6,0.8-1.6,1.6-2.7,2c0.7,0.4,1.3,1,2,1.8c0.7,0.7,1.6,2.1,2.7,4c0.7,1.3,1.3,2.1,1.8,2.7l1.1,1.6h-3.7l-1-1.4
				c0,0-0.1-0.1-0.1-0.3l-0.6-0.9l-1-1.6l-1-1.7c-0.6-0.8-1.1-1.6-1.7-2.1s-1-0.8-1.4-1.1c-0.4-0.3-1.1-0.3-2.1-0.3h-0.8v9.2h-2.8
				V2154.7z M2132.2,2136h-0.8v6.7h1.1c1.6,0,2.5-0.1,3.1-0.4c0.6-0.3,1-0.7,1.3-1.1c0.3-0.6,0.4-1.1,0.4-1.8c0-0.7-0.1-1.3-0.6-1.8
				c-0.4-0.6-0.9-1-1.6-1.1C2134.5,2136.1,2133.7,2136,2132.2,2136z"/>
			<path fill="#999999" d="M2198.1,2133.3h2.1l9.5,21.4h-3.1l-2.8-6.2h-9.1l-2.7,6.2h-3.1L2198.1,2133.3z M2202.7,2145.6l-3.4-7.7
				l-3.1,7.7H2202.7z"/>
			<path fill="#999999" d="M2251.7,2133.5h17.7v2.7h-7.4v18.6h-3.1v-18.6h-7.2V2133.5L2251.7,2133.5z"/>
			<path fill="#999999" d="M2316.7,2133.5h12v2.7h-9.1v6.5h8.6v2.7h-8.6v6.7h9.4v2.7h-12.3V2133.5z"/>
			<path fill="#999999" d="M2376.8,2154.7v-21.3h7.2c2.8,0,5.2,0.4,6.8,1.3c1.7,0.9,3,2.1,4,3.8c1,1.7,1.6,3.5,1.6,5.5
				c0,1.4-0.3,2.8-0.9,4.1c-0.6,1.3-1.3,2.4-2.4,3.4c-1,1-2.3,1.8-3.5,2.3c-0.8,0.3-1.6,0.6-2.3,0.6c-0.7,0.1-2,0.1-3.8,0.1h-6.7
				V2154.7z M2383.6,2136.1h-3.8v15.9h4c1.6,0,2.7-0.1,3.5-0.3c0.8-0.1,1.6-0.4,2.1-0.8c0.6-0.3,1.1-0.7,1.6-1.1
				c1.6-1.6,2.3-3.4,2.3-5.8c0-2.3-0.7-4.1-2.3-5.5c-0.6-0.6-1.3-1-2-1.3c-0.7-0.3-1.4-0.6-2.1-0.7
				C2386.1,2136.1,2385,2136.1,2383.6,2136.1z"/>
		</g>
		<g>
			<path fill="#DDDDDD" d="M1686.1,2105.5l-4.3-2.5c-2.7-1.6-4.5-3.3-5.7-4.8c-1.1-1.6-1.6-3.3-1.6-5.2c0-3,1-5.5,3.1-7.4s5-3,8.2-3
				c3.3,0,6.2,0.8,8.9,2.7v6.2c-2.8-2.7-5.8-4-8.9-4c-1.8,0-3.3,0.4-4.4,1.3c-1.1,0.8-1.8,2-1.8,3.3c0,1.1,0.4,2.3,1.3,3.3
				s2.3,2.1,4.1,3.1l4.3,2.6c4.7,2.8,7.1,6.4,7.1,10.8c0,3.1-1,5.7-3.1,7.5c-2.1,1.8-4.8,3-8.1,3c-3.8,0-7.2-1.1-10.5-3.5v-7.1
				c3,3.8,6.5,5.7,10.3,5.7c1.7,0,3.1-0.4,4.4-1.4c1.1-1,1.7-2.1,1.7-3.7C1691.2,2109.9,1689.5,2107.7,1686.1,2105.5z"/>
			<path fill="#DDDDDD" d="M1730.6,2082.6c6,0,10.9,1.8,14.9,5.7c4,3.8,6,8.5,6,14.2c0,5.7-2,10.5-6,14.2s-9.1,5.7-15.2,5.7
				c-5.8,0-10.6-1.8-14.6-5.7c-3.8-3.7-5.8-8.4-5.8-14c0-5.8,2-10.5,5.8-14.3C1719.7,2084.4,1724.6,2082.6,1730.6,2082.6z
				 M1730.7,2087.8c-4.4,0-8.1,1.4-10.9,4.1c-2.8,2.7-4.2,6.2-4.2,10.6c0,4.1,1.4,7.7,4.2,10.3c2.8,2.8,6.4,4.1,10.8,4.1
				c4.2,0,7.9-1.4,10.8-4.2c2.8-2.8,4.4-6.4,4.4-10.5c0-4.1-1.4-7.5-4.4-10.3C1738.5,2089.2,1735,2087.8,1730.7,2087.8z"/>
			<path fill="#DDDDDD" d="M1767.4,2083.2h20.5v5h-15v10.8h15v5h-15v18h-5.5V2083.2z"/>
			<path fill="#DDDDDD" d="M1799.7,2083.2h32.3v5h-13.5v33.7h-5.5V2088h-13.3V2083.2z"/>
			<path fill="#DDDDDD" d="M1895.5,2083.2h5.5l-15.6,38.8h-1.3l-12.6-31.5l-12.8,31.5h-1.1l-15.6-38.8h5.5l10.6,26.6l10.8-26.6h5.2
				l10.8,26.6L1895.5,2083.2z"/>
			<path fill="#DDDDDD" d="M1922.1,2082.9h3.8l17.3,38.8h-5.7l-5.1-11.5H1916l-4.8,11.5h-5.7L1922.1,2082.9z M1930.3,2105.4l-6.2-14
				l-5.8,14H1930.3z"/>
			<path fill="#DDDDDD" d="M1956.8,2121.8v-38.7h9.6c4,0,7.1,1,9.4,3s3.4,4.5,3.4,7.8c0,2.3-0.6,4.2-1.7,5.8
				c-1.1,1.7-2.7,2.8-4.8,3.7c1.3,0.8,2.4,2,3.7,3.3c1.1,1.4,2.8,3.8,5,7.4c1.4,2.1,2.4,3.8,3.3,5l2,2.8h-6.5l-1.7-2.5
				c0-0.1-0.1-0.3-0.3-0.4l-1.1-1.6l-1.7-2.8l-1.8-3c-1.1-1.6-2.1-2.8-3.1-3.8s-1.8-1.6-2.6-2c-0.7-0.4-2.1-0.6-3.8-0.6h-1.4v16.9
				h-5.7V2121.8z M1964.1,2087.8h-1.7v12.2h2.1c2.8,0,4.7-0.3,5.8-0.7c1-0.4,1.8-1.1,2.4-2.1s0.8-2.1,0.8-3.3c0-1.3-0.3-2.3-1-3.3
				c-0.7-1-1.6-1.7-2.7-2.1C1968.7,2088.1,1966.8,2087.8,1964.1,2087.8z"/>
			<path fill="#DDDDDD" d="M2108.7,2083.2h5.2v38.7h-4.8l-25.8-29.8v29.8h-5.2v-38.7h4.5l26.1,30V2083.2z"/>
			<path fill="#DDDDDD" d="M2152.2,2102.7h13v16.4c-4.8,2.1-9.5,3.1-14.2,3.1c-6.4,0-11.5-1.8-15.3-5.7c-3.8-3.7-5.8-8.4-5.8-13.9
				c0-5.8,2-10.6,5.9-14.5c4-3.8,8.9-5.8,14.9-5.8c2.1,0,4.2,0.3,6.2,0.7s4.4,1.3,7.4,2.6v5.7c-4.7-2.7-9.2-4-13.7-4
				c-4.2,0-7.8,1.4-10.6,4.3c-2.8,2.8-4.4,6.4-4.4,10.6c0,4.4,1.4,7.9,4.4,10.8c2.8,2.8,6.7,4.1,11.2,4.1c2.3,0,4.8-0.6,7.9-1.6
				l0.6-0.1v-8.1h-7.5V2102.7L2152.2,2102.7z"/>
			<path fill="#DDDDDD" d="M2182.4,2083.2h5.5v38.7h-5.5V2083.2z"/>
			<path fill="#DDDDDD" d="M2236.2,2083.2h5.2v38.7h-4.8l-25.8-29.8v29.8h-5.2v-38.7h4.5l26.1,30V2083.2z"/>
			<path fill="#DDDDDD" d="M2258.9,2083.2h22v5h-16.4v11.8h15.9v5h-15.9v12h16.9v5h-22.4V2083.2z"/>
			<path fill="#DDDDDD" d="M2296.3,2083.2h22v5h-16.4v11.8h15.9v5h-15.9v12h16.9v5h-22.4V2083.2z"/>
			<path fill="#DDDDDD" d="M2333.8,2121.8v-38.7h9.6c4,0,7.1,1,9.4,3s3.4,4.5,3.4,7.8c0,2.3-0.6,4.2-1.7,5.8
				c-1.1,1.7-2.7,2.8-4.8,3.7c1.3,0.8,2.4,2,3.7,3.3c1.1,1.4,2.8,3.8,5,7.4c1.4,2.1,2.4,3.8,3.3,5l2,2.8h-6.5l-1.7-2.5
				c0-0.1-0.1-0.3-0.3-0.4l-1.1-1.6l-1.7-2.8l-1.8-3c-1.1-1.6-2.1-2.8-3.1-3.8s-1.8-1.6-2.6-2c-0.7-0.4-2.1-0.6-3.8-0.6h-1.4v16.9
				h-5.7V2121.8z M2341.1,2087.8h-1.7v12.2h2.1c2.8,0,4.7-0.3,5.8-0.7c1-0.4,1.8-1.1,2.4-2.1c0.6-1,0.8-2.1,0.8-3.3
				c0-1.3-0.3-2.3-1-3.3s-1.6-1.7-2.7-2.1C2345.7,2088.1,2343.8,2087.8,2341.1,2087.8z"/>
			<path fill="#DDDDDD" d="M2386.5,2105.5l-4.3-2.5c-2.7-1.6-4.5-3.3-5.7-4.8s-1.7-3.4-1.7-5.4c0-3,1-5.5,3.1-7.4
				c2.1-1.8,4.8-2.8,8.2-2.8c3.3,0,6.2,0.8,8.9,2.7v6.2c-2.8-2.7-5.8-4-8.9-4c-1.8,0-3.3,0.4-4.4,1.3c-1.1,0.8-1.7,2-1.7,3.3
				c0,1.1,0.4,2.3,1.3,3.3s2.3,2.1,4.1,3.1l4.2,2.6c4.7,2.8,7.1,6.4,7.1,10.8c0,3.1-1,5.7-3.1,7.5c-2.1,1.8-4.8,3-8.1,3
				c-3.8,0-7.4-1.1-10.5-3.5v-7.1c3,3.8,6.5,5.7,10.3,5.7c1.7,0,3.1-0.4,4.4-1.4c1.1-1,1.7-2.1,1.7-3.7
				C2391.6,2109.9,2389.9,2107.7,2386.5,2105.5z"/>
		</g>
		<path fill="#F06022" d="M2061.5,2104.8v-5h-8.4v5H2061.5z M2045.7,2116.9v-28.8h16.4v-5h-22v38.5h22.4v-5h-16.9V2116.9z"/>
		<path fill="#F06022" d="M2007,2104.8v-5h-8.4v5H2007z M1997.5,2116.9v5h22.4v-38.7h-22v5h16.4v28.8H1997.5z"/>
	</g>
</g>
</svg>
