<?xml version="1.0" encoding="utf-8"?>
<!-- Generator: Adobe Illustrator 15.0.0, SVG Export Plug-In  -->
<!DOCTYPE svg PUBLIC "-//W3C//DTD SVG 1.1//EN" "http://www.w3.org/Graphics/SVG/1.1/DTD/svg11.dtd" [
	<!ENTITY ns_flows "http://ns.adobe.com/Flows/1.0/">
]>
<svg version="1.1"
	 xmlns="http://www.w3.org/2000/svg" xmlns:xlink="http://www.w3.org/1999/xlink" xmlns:a="http://ns.adobe.com/AdobeSVGViewerExtensions/3.0/"
	 x="0px" y="0px" width="358px" height="370px" viewBox="0 0 358 370" overflow="visible" enable-background="new 0 0 358 370"
	 xml:space="preserve">
<defs>
</defs>
<path fill="#F06022" d="M222.9,165.1c-5.7-3.1-9.5-4.2-16.3-2.7l-17.4,3.7c-6.9,1.5-9.9,4-13.8,9.1c-5.2,6.8-6.2,10.2-5.2,14.7
	l8.8,41.4c1,4.6,3.2,7.2,10.8,11.3c5.7,3.1,9.5,4.2,16.3,2.7l17.4-3.7c6.9-1.5,9.9-4,13.8-9.1c5.2-6.8,6.2-10.2,5.2-14.7l-8.8-41.4
	C232.7,171.8,230.4,169.2,222.9,165.1z M70.7,69.2c-0.9-4.1-1.4-7.6-4.9-9.7l-10-5.5c-3.3-1.9-7.7-1.2-11.1-0.5l-18.5,3.9
	c-4.1,0.9-7.5,1.6-10.7,4.9l-6.4,7.1C6.8,72,5.3,74,6.7,80.4L10,95.9l63.5-13.5L70.7,69.2z M191.2,17.1l-47.1,10l29.7,24L191.2,17.1
	z M268.8,0.6l-49,10.4c-0.6,1.9-1.7,3.8-2.6,5.8L192,63.7l42,32.6c3.2,2.7,6.6,5.1,7.4,9.2c1.3,6.2-2.4,12.4-8.5,13.8
	c-6.6,1.4-12.4-4.3-17.3-8.3l-35.2-28.4l-20.6,40.2c-2.9,5.6-5.8,13.2-12.4,14.6c-6.2,1.3-12.1-2.9-13.4-9.1
	c-0.9-4.1,1.2-7.7,3.1-11.4L162.3,70l-42-32.6c-1.7-1.4-3.3-2.7-4.7-4.2l-37.5,8c9.6,5.7,12.5,13.5,14.9,24.7l3.7,17.6
	c2.7,12.6,1.4,16.7-11.6,19.4l-70.4,15l1.6,7.3c0.4,2.1,2.6,4.5,4.6,5.7l6.7,4.8c3.6,2.6,8.2,2.6,15.5,1l47.1-10
	c7.3-1.6,15.4-1.6,17.4,7.8c2,9.6-6.4,12.8-12.7,14.2l-52.1,11.1c-9.1,1.9-12.8,2.7-20.9-1.8l-11.1-6.2c-4.8-2.8-8.2-5.2-10.6-8.3
	l8.1,38.1c2-0.4,4.1-0.8,6-1.2c8.9-1.9,12.5,4.8,14,12.1l0.6,2.7l3.5-4.8c4.6-6.2,11.6-16.3,17.7-17.6l15.1-3.2
	c5.3-1.1,13.5,2.9,20.4,6.2l15.4,7.5c14.9,7.3,17.4,13.3,20.7,28.8l5,23.5c3.4,15.8,3.5,22-7.2,34.7l-11,13.3
	c-3.8,4.6-9.6,12.3-15.5,13.6L78,300.2c-9.8,2.1-15.8-3.3-24.2-8.5l-5.2-3.2l9.4,44.1c1.6,7.5,1.6,15.4-7.8,17.4
	c-1.8,0.4-3.7,0.9-5.7,1.3c4.7,12.9,18.3,20.7,32.2,17.8l258.8-55c15.1-3.2,24.8-18.1,21.6-33.2L302,22.2
	C298.8,7.1,283.9-2.6,268.8,0.6z M264.4,213.1c3.1,14.4,0.6,20.7-8.8,32.7c-9.4,12-13.6,14.8-27.5,17.8l-17.4,3.7
	c-13.9,3-18.9,2.1-32.4-5.1c-13.5-7.2-18.3-11.9-21.3-26.3l-8.8-41.4c-3.1-14.6-1.2-20.3,7.9-31.5c8.8-11.2,13.1-15.7,28.5-18.9
	l17.4-3.7c15.3-3.3,21.1-0.9,33.7,5.7c12.9,6.6,16.9,11,20,25.6L264.4,213.1z M76.8,277.6l5.7-1.2c3-0.6,5-3.2,6.7-5.5l13.5-17.2
	c2.8-3.7,3.4-6.5,2.5-10.6L99,213.6c-0.9-4.1-2.6-6.4-6.6-8.6l-19.4-10.2c-2.4-1.4-5.4-2.9-8.4-2.3l-5.7,1.2c-3.2,0.7-6.2,5.6-8,8.4
	L40,218c-3.6,5.3-4.7,8.2-3.7,13l4.6,21.5c0.7,3.2,2.5,7.1,5.2,8.7l20,12.2C70,275.9,74.1,278.2,76.8,277.6z"/>
</svg>
