<?xml version="1.0" encoding="utf-8"?>
<!-- Generator: Adobe Illustrator 15.0.0, SVG Export Plug-In . SVG Version: 6.00 Build 0)  -->
<!DOCTYPE svg PUBLIC "-//W3C//DTD SVG 1.1//EN" "http://www.w3.org/Graphics/SVG/1.1/DTD/svg11.dtd">
<svg version="1.1" id="Layer_1" xmlns="http://www.w3.org/2000/svg" xmlns:xlink="http://www.w3.org/1999/xlink" x="0px" y="0px"
	 width="348px" height="150px" viewBox="0 0 348 150" enable-background="new 0 0 348 150" xml:space="preserve">
<g>
	<path fill="#293674" d="M59.53,22.038c0.557,0.417,0.834,1.112,0.834,1.947c0,0.973,0,1.808,0,2.782v50.488c0,0.696,0,1.253,0,1.81
		c0,0.556,0,1.251,0,1.808c-0.139,0.696-0.139,1.251-0.139,1.67c0,0.556-0.139,1.112-0.139,1.668
		c-0.278,1.113-0.557,2.088-0.834,3.2c-0.14,0.974-0.557,1.946-0.835,2.781c-1.391,3.061-3.06,5.424-5.146,7.51
		c-2.086,1.948-4.589,3.617-7.65,4.868c-0.834,0.419-1.668,0.696-2.643,0.975c-0.834,0.278-1.807,0.417-2.782,0.695
		c-0.834,0.278-1.668,0.417-2.642,0.417c-0.835,0.14-1.669,0.14-2.642,0.418c-0.28,0-0.695,0-0.975,0c-0.277,0-0.696,0-1.111,0
		c-0.28,0.139-0.695,0.139-1.114,0c-0.417,0-0.834,0-1.252,0c-0.416,0.139-0.973,0.139-1.529,0.139c-0.695,0-1.112,0-1.529-0.139
		h-1.114c-0.277,0-0.696,0-0.973-0.14c-0.695-0.139-1.252-0.278-1.948-0.278s-1.252-0.139-1.808-0.277
		c-0.14-0.14-0.417-0.14-0.555-0.14c-0.14,0,0,0.278-0.14,0.278c-0.835-0.139-1.531-0.278-2.365-0.557
		c-0.695-0.139-1.529-0.417-2.225-0.834c-3.06-1.253-5.702-2.921-8.068-4.729c-2.364-1.947-4.033-4.59-5.146-7.789
		c-0.138-0.278-0.278-0.417-0.278-0.695s0-0.417-0.14-0.557c-0.277-0.973-0.139-1.808,0.28-2.363
		c0.416-0.558,1.111-0.836,1.806-0.975c0.835-0.14,1.671-0.278,2.644-0.14c0.974,0,1.948,0,2.782,0h4.034c0.417,0,0.695,0,0.972,0
		c0.28,0,0.557,0,0.976,0c1.251,0.278,2.086,0.695,2.363,1.253c0.278,0.557,0.834,1.252,1.391,2.086
		c0.279,0.278,0.557,0.695,1.114,1.252c0.138,0.139,0.138,0.277,0.277,0.417c0.139,0.139,0.139,0.139,0.278,0.417
		c0.696,0.417,1.251,0.975,1.947,1.253c0.695,0.417,1.531,0.695,2.366,1.112c0.556,0.139,1.111,0.278,1.668,0.278
		c0.557,0,1.114,0.139,1.81,0.277H30.6c0.556,0.14,1.251,0.14,2.086,0c0.835-0.139,1.531-0.277,1.946-0.417
		c0.418-0.139,0.695-0.278,0.975-0.278c0.277,0,0.556-0.139,0.834-0.277c1.668-0.695,3.059-1.669,4.173-2.782
		c1.112-1.252,1.948-2.504,2.782-4.172c0.139-0.419,0.277-0.975,0.417-1.393c0.14-0.417,0.14-0.973,0.417-1.529
		c0.139-0.695,0.278-1.529,0.278-2.365c0-0.834,0-1.669,0-2.503c0-0.278,0-0.695,0-0.974c0-0.279,0-0.556,0-0.834
		c0-0.279,0-0.696,0-0.975s0-0.695-0.14-0.974c-0.139-0.139-0.139-0.278-0.277-0.417s-0.278-0.139-0.418-0.417
		c-0.695-0.14-1.251,0.139-1.668,0.417c-0.418,0.417-0.834,0.695-1.252,1.112c-0.696,0.557-1.391,1.112-2.086,1.531
		c-0.696,0.417-1.53,0.973-2.364,1.251c-0.835,0.417-1.67,0.695-2.643,0.974c-0.834,0.278-1.809,0.417-2.782,0.695
		c-0.418,0.139-0.974,0.139-1.391,0.139c-0.418,0-0.834,0.14-1.252,0.14c-0.417,0.139-0.973,0.139-1.948,0.139
		c-0.834,0-1.53,0-1.947-0.139h-0.974c-0.277-0.14-0.557-0.14-0.834-0.14c-0.278,0-0.557,0-0.834-0.139
		c-1.114-0.278-2.227-0.417-3.2-0.695c-0.973-0.139-1.948-0.557-2.782-0.834c-3.339-1.391-6.121-3.2-8.207-5.563
		c-2.086-2.365-3.893-5.286-5.284-8.624c-0.418-0.835-0.695-1.808-0.835-2.781c-0.14-0.975-0.417-1.948-0.695-2.782
		c0-0.417,0-0.695-0.14-0.974c0-0.417-0.139-1.113-0.139-1.809S0.278,54.445,0.14,53.75C0,53.333,0,52.915,0,52.638v-1.114
		c0-0.416,0-0.973,0-1.529s0-1.112,0.14-1.529v-1.114c0.139-0.277,0.139-0.695,0-0.973c0-0.278,0-0.695,0.139-0.974
		c0.139-0.835,0.277-1.53,0.417-2.365c0.14-0.696,0.14-1.53,0.417-2.364c0.418-1.391,0.974-2.921,1.391-4.312
		c0.557-1.391,1.114-2.782,1.948-4.033c0.417-0.835,0.834-1.53,1.391-2.226c0.557-0.556,1.113-1.252,1.668-2.086
		c0.28-0.417,0.557-0.834,0.976-1.112c0.416-0.418,0.834-0.695,1.251-1.113l0.695-0.695c0.417-0.278,0.695-0.556,1.112-0.835
		c0.418-0.277,0.834-0.556,1.252-0.834c0.973-0.695,2.086-1.252,3.199-1.669s2.365-0.974,3.617-1.252
		c0.695-0.278,1.251-0.417,1.946-0.417c0.696,0,1.251-0.139,1.947-0.278c0.28-0.139,0.695-0.139,1.252,0
		c0.557,0.139,0.974,0,1.114-0.139c2.502-0.139,4.729,0.139,6.815,0.695c1.946,0.556,3.755,1.391,5.423,2.365
		c0.28,0.139,0.418,0.278,0.695,0.556c0.28,0.278,0.557,0.417,0.835,0.696c0.417,0.417,0.974,0.834,1.251,1.112
		c0.418,0.417,0.835,0.695,1.391,1.113c0.14,0.138,0.418,0.138,0.695,0.277c0.28,0.14,0.557,0,0.695-0.139
		c0.418-0.138,0.696-0.417,0.696-0.834c0.14-0.417,0.14-0.834,0.418-1.113c0.139-0.417,0.277-0.835,0.417-1.252
		c0.14-0.417,0.279-0.834,0.696-1.112c0.417-0.278,1.112-0.557,1.669-0.557c0.696,0,1.391,0,2.086,0h5.98c0.835,0,1.669,0,2.365,0
		C58.557,21.48,59.113,21.62,59.53,22.038 M43.396,58.618c0.277-0.695,0.557-1.669,0.834-2.782c0.278-1.111,0.418-2.226,0.418-3.477
		c0.138-1.252,0.138-2.365,0-3.617c0-1.112-0.14-2.225-0.418-3.199c-0.139-0.278-0.277-0.556-0.139-0.835c0-0.139,0-0.417,0-0.834
		c-0.139-0.556-0.278-1.112-0.418-1.668c-0.138-0.557-0.416-1.113-0.555-1.53c-1.113-2.782-2.642-4.868-4.729-6.398
		c-2.086-1.251-5.148-2.086-9.041-2.086c-0.14,0.139-0.418,0.278-0.696,0.139c-0.28,0-0.557,0-0.835,0
		c-0.556,0.139-1.113,0.278-1.531,0.417c-0.416,0.139-0.973,0.278-1.391,0.417c-2.086,0.834-3.616,2.225-4.728,3.895
		c-1.113,1.669-1.947,3.616-2.782,5.842c-0.14,0.417-0.279,0.695-0.279,0.973c0,0.278,0,0.556-0.138,0.974
		c-0.279,0.834-0.418,2.086-0.418,3.755c-0.139,1.67,0,3.061,0.28,4.034v1.251c0.139,0.695,0.277,1.252,0.416,1.809
		c0.14,0.557,0.14,1.252,0.418,1.809c0.695,2.086,1.529,3.895,2.643,5.424c0.973,1.53,2.502,2.781,4.312,3.756
		c0.834,0.417,1.948,0.834,3.338,1.252c0.556,0,0.973,0,1.251,0.139c0.14,0,0.417,0,0.695,0c0.279,0,0.556,0,0.696,0h1.251
		c0.695-0.139,1.391-0.278,1.948-0.417c0.695-0.14,1.252-0.278,1.948-0.557c1.948-0.834,3.616-1.947,4.729-3.338
		C41.587,62.234,42.562,60.564,43.396,58.618"/>
	<path fill="#293674" d="M100.422,19.812c0.834,0,1.668,0.139,2.364,0.278c0.695,0.139,1.252,0.557,1.53,1.113
		c0.417,0.695,0.695,1.668,0.695,3.199v4.033c0,0.834,0,1.809,0,2.921c0,1.113-0.14,1.947-0.417,2.643
		c-0.278,0.557-0.834,0.974-1.391,1.113s-1.253,0.278-1.948,0.278s-1.529,0-2.363-0.139c-0.835-0.139-1.53,0-2.366,0.139
		c-0.556,0.139-1.11,0.278-1.668,0.278c-0.557,0-1.113,0.139-1.529,0.278c-1.252,0.417-2.505,0.973-3.757,1.669
		c-1.251,0.695-2.225,1.53-2.92,2.504c-0.417,0.695-0.834,1.251-1.253,1.947c-0.415,0.695-0.834,1.391-1.251,2.086
		c-0.278,0.696-0.417,1.252-0.695,1.947c-0.14,0.696-0.417,1.251-0.556,1.947c-0.14,0.557-0.279,1.113-0.279,1.669
		c0,0.558-0.139,1.112-0.277,1.669c-0.139,0.279-0.139,0.558,0,0.834c0,0.279,0,0.558,0,0.836v1.946
		c-0.139,0.558-0.139,1.114-0.139,1.81c0.139,0.695,0.139,1.391,0.139,1.946v7.512v10.015c0,0.972,0,1.946-0.139,2.781
		c-0.14,0.834-0.28,1.529-0.695,2.087c-0.14,0.276-0.419,0.417-0.835,0.555c-0.418,0.141-0.696,0.279-1.113,0.279h-0.557
		c-0.417,0.138-0.834,0.138-1.252,0.138h-1.251h-5.147c-0.277,0.141-0.834,0.141-1.252,0.141H68.57
		c-0.417-0.141-0.834-0.278-1.252-0.417c-0.416-0.141-0.695-0.419-0.834-0.836c-0.277-0.417-0.557-0.974-0.557-1.669
		s0-1.529,0-2.363V68.91V35.529v-8.623v-2.365c0-0.696,0.14-1.391,0.418-1.808c0.417-0.557,0.972-0.974,1.808-1.113
		c0.835-0.14,1.669-0.278,2.782-0.278h5.981c0.974,0,1.809,0,2.504,0.138c0.696,0.14,1.252,0.557,1.668,1.113
		c0.279,0.417,0.419,0.973,0.419,1.668c0,0.696,0.139,1.391,0.139,2.086c0.139,0.696,0.276,1.252,0.417,1.809
		c0.14,0.556,0.556,0.835,1.112,0.835c0.139-0.14,0.278-0.279,0.418-0.279c0.139,0,0.277-0.139,0.416-0.278
		c0.418-0.417,0.835-0.834,1.252-1.391c0.419-0.557,0.834-0.974,1.392-1.391c0.278-0.278,0.557-0.556,0.834-0.834
		c0.279-0.278,0.557-0.557,0.835-0.834c0.695-0.418,1.391-0.974,2.227-1.391c0.695-0.417,1.529-0.974,2.363-1.251
		c0.834-0.279,1.529-0.557,2.364-0.835c0.836-0.278,1.67-0.417,2.504-0.695c0.278-0.139,0.695-0.139,1.391,0
		C99.865,20.09,100.283,19.951,100.422,19.812"/>
	<path fill="#293674" d="M162.455,49.299c0.139,0.417,0.278,1.113,0.278,1.948c0,0.834-0.14,1.529-0.278,1.946v1.252
		c-0.139,0.695-0.277,1.252-0.139,1.947c0,0.695,0,1.252-0.139,1.947c-0.14,0.557-0.279,1.112-0.418,1.529
		c-0.139,0.418-0.139,0.974-0.277,1.531c-0.279,0.834-0.557,1.808-0.835,2.642c-0.278,0.974-0.556,1.81-0.974,2.505
		c-1.668,3.754-3.755,6.814-6.536,9.179c-2.644,2.365-5.844,4.312-9.736,5.843c-0.976,0.417-1.948,0.695-2.922,0.834
		c-0.974,0.14-1.946,0.417-3.061,0.695c-0.417,0.14-0.834,0.278-1.252,0.278c-0.416,0-0.973,0-1.251,0.139c-0.278,0-0.556,0-0.835,0
		c-0.277,0-0.556,0-0.834,0c-0.417,0.14-0.973,0.14-1.948,0.14c-0.834,0-1.529,0-1.946-0.14h-1.112
		c-0.278,0.14-0.695,0.14-1.114,0.14c-0.415,0-0.834,0-1.251-0.14c-0.278-0.139-0.556-0.139-0.835-0.139
		c-0.277,0-0.556,0-0.973-0.139c-0.834-0.278-1.529-0.418-2.365-0.557c-0.835-0.139-1.53-0.417-2.226-0.695
		c-0.973-0.279-1.807-0.696-2.643-0.975c-0.835-0.278-1.669-0.695-2.503-1.112c-2.782-1.669-5.146-3.615-7.093-5.842
		c-1.948-2.225-3.617-4.868-5.008-7.929c-0.417-0.695-0.695-1.391-0.836-2.225c-0.139-0.834-0.415-1.669-0.695-2.503
		c-0.139-0.417-0.277-0.695-0.277-1.113c0-0.278-0.139-0.695-0.278-1.113c-0.14-0.695-0.278-1.251-0.278-1.946
		c0-0.696-0.139-1.253-0.277-1.948c-0.14-0.416-0.14-0.695-0.14-1.112v-1.112c-0.14-0.417-0.278-1.112-0.14-1.947
		c0-0.834,0.14-1.529,0.279-1.947v-0.835c0.139-0.417,0.139-0.834,0-1.251c0-0.418,0-0.835,0.139-1.253
		c0.139-0.417,0.139-0.834,0.139-1.113c0-0.417,0.139-0.695,0.278-1.112c0.278-0.974,0.556-2.086,0.836-3.06
		c0.276-0.974,0.556-1.947,0.972-2.921c1.392-3.199,3.061-5.98,5.147-8.067c1.946-2.226,4.312-4.173,7.232-5.981
		c0.834-0.417,1.668-0.695,2.503-1.112c0.836-0.278,1.67-0.695,2.643-1.112c0.975-0.418,2.086-0.696,3.2-0.835
		c1.112-0.139,2.225-0.417,3.477-0.695c0.695-0.139,1.253-0.139,1.809-0.139c0.555,0,1.112,0,1.669-0.139
		c4.59-0.139,8.483,0.417,11.822,1.391c3.339,0.974,6.259,2.504,8.902,4.312c0.834,0.695,1.807,1.251,2.642,2.086
		c0.836,0.695,1.67,1.53,2.365,2.365c0.695,0.834,1.252,1.529,1.668,2.364c0.557,0.834,1.113,1.669,1.53,2.504
		c0.556,0.834,0.975,1.808,1.251,2.782c0.28,0.973,0.696,2.086,1.114,3.199c0.277,0.695,0.417,1.251,0.557,1.947
		c0.139,0.695,0.277,1.391,0.416,2.086c0.14,0.279,0.14,0.696,0.14,0.974c0,0.278,0,0.695,0.14,0.974
		c0.139,0.417,0.139,0.834,0.139,1.252C162.316,48.187,162.316,49.021,162.455,49.299 M145.903,53.61
		c0.14-0.417,0.14-0.973,0.14-1.668s0-1.253-0.14-1.669v-0.975c-0.139-0.417-0.277-0.834-0.277-1.252c0-0.417,0-0.973-0.139-1.251
		c0-0.279,0-0.557-0.14-0.696c-0.14-0.695-0.278-1.251-0.417-1.947c-0.139-0.695-0.278-1.251-0.557-1.947
		c-0.834-2.086-1.948-3.756-3.06-5.286c-1.113-1.391-2.781-2.643-4.729-3.477c-0.418-0.139-0.974-0.278-1.391-0.417
		c-0.418-0.139-0.974-0.278-1.529-0.417c-0.695-0.139-1.252-0.278-1.948-0.139c-0.695,0-1.391,0-2.086,0
		c-0.278,0.139-0.557,0.278-0.834,0.139c-0.28,0-0.557,0-0.835,0c-0.556,0.139-1.113,0.278-1.531,0.417
		c-0.556,0.139-0.973,0.278-1.391,0.556c-1.946,0.835-3.616,2.086-4.729,3.756c-1.251,1.668-2.227,3.477-2.922,5.563
		c-0.276,0.834-0.415,1.668-0.556,2.503c-0.14,0.834-0.278,1.67-0.417,2.643c-0.138,0.418-0.138,0.835-0.138,1.252v0.975
		c-0.141,0.555-0.28,1.391-0.141,2.503c0,1.112,0.141,1.948,0.278,2.503v1.113c0.139,0.695,0.277,1.252,0.417,1.809
		c0.141,0.556,0.141,1.251,0.417,1.808c0.834,2.365,1.67,4.312,2.505,5.702c0.973,1.392,2.363,2.782,4.312,3.895
		c0.557,0.418,1.112,0.695,1.808,0.974s1.391,0.417,2.087,0.558c0.278,0.138,0.555,0.138,0.835,0c0.277,0,0.556,0,0.834,0
		c0.277,0.138,0.695,0.138,0.973,0.138c0.418,0,0.695,0,0.976,0h0.972c0.696-0.138,1.253-0.278,1.948-0.417
		c0.695-0.138,1.252-0.278,1.808-0.417c2.087-0.835,3.756-1.808,5.008-3.198c1.251-1.391,2.364-3.061,3.198-5.008
		c0.279-0.834,0.557-1.529,0.695-2.365c0.14-0.834,0.418-1.668,0.557-2.503c0.139-0.278,0.139-0.556,0.139-0.835
		c0-0.277,0-0.557,0.14-0.834v-1.113C145.765,54.445,145.765,54.029,145.903,53.61"/>
	<path fill="#293674" d="M168.438,21.48h8.9c0.834,0,1.67,0,2.365,0.14c0.695,0.139,1.251,0.417,1.529,0.834
		c0.417,0.417,0.695,1.112,0.695,1.947c0,0.834,0.14,1.669,0.14,2.504v8.206v17.665c0,2.782,0.139,5.563,0.417,8.066
		c0.278,2.504,0.974,4.59,2.087,6.26c1.112,1.669,2.92,2.781,5.284,3.477c0.418,0.141,0.696,0.141,0.975,0.141s0.556,0,0.974,0.138
		c0.417,0.139,0.834,0.139,1.251,0.139s0.835,0,1.112-0.139c0.419-0.138,0.695-0.138,0.974-0.138c0.279,0,0.558,0,0.836-0.141
		c1.668-0.417,2.92-0.974,3.895-1.529c1.391-0.835,2.503-1.947,3.337-3.339c0.835-1.391,1.391-2.92,1.81-4.589
		c0.417-1.67,0.555-3.616,0.695-5.702c0.139-2.087,0.139-4.312,0.139-6.538V34.556v-7.65V24.68c0-0.695,0.138-1.391,0.417-1.809
		c0.417-0.695,0.974-1.112,1.808-1.251c0.835-0.14,1.669-0.14,2.781-0.14h6.26h2.226c0.695,0,1.251,0.14,1.808,0.418
		c0.696,0.417,0.975,0.973,1.113,1.808c0.14,0.835,0.14,1.669,0.14,2.782v9.041v33.243v8.346v2.364c0,0.834-0.14,1.391-0.418,1.808
		c-0.417,0.696-0.973,0.975-1.809,1.113c-0.834,0.14-1.669,0.14-2.503,0.14h-6.259c-0.834,0-1.67,0-2.365-0.14
		c-0.695-0.139-1.251-0.417-1.529-0.975c-0.14-0.276-0.278-0.556-0.417-1.112c-0.14-0.417-0.278-0.974-0.418-1.391
		c-0.139-0.417-0.277-0.974-0.417-1.251c-0.139-0.419-0.417-0.695-0.696-0.695c-0.138-0.141-0.417-0.141-0.555-0.141
		c-0.279,0.141-0.419,0.141-0.558,0.279c-0.557,0.278-0.974,0.695-1.391,1.112s-0.834,0.695-1.252,1.112
		c-0.277,0.278-0.556,0.557-0.834,0.835s-0.558,0.556-0.975,0.834c-1.808,1.112-3.894,1.948-6.397,2.644
		c-0.557,0.139-1.112,0.278-1.669,0.278s-1.112,0.139-1.808,0.277c-0.279,0.14-0.695,0.14-0.975,0c-0.417,0-0.695,0-0.974,0
		c-0.278,0.14-0.695,0.14-1.529,0c-0.695,0-1.252-0.139-1.531-0.139c-0.417,0-0.834,0-1.251,0s-0.835,0-1.112,0
		c-0.974-0.278-1.809-0.417-2.781-0.557c-0.836-0.139-1.67-0.417-2.644-0.695c-0.417-0.139-0.695-0.277-0.974-0.417
		c-0.278-0.139-0.556-0.279-0.974-0.417c-2.781-1.53-5.007-3.616-6.677-6.26c-0.973-1.669-1.808-3.615-2.225-5.98
		c-0.418-2.364-0.834-4.868-0.834-7.511c-0.14-2.643-0.14-5.424-0.14-8.205c0-2.782,0-5.564,0-8.347V29.27c0-0.973,0-2.225,0-3.616
		s0.14-2.364,0.556-3.06c0.279-0.417,0.695-0.695,1.391-1.113C167.88,21.62,168.297,21.48,168.438,21.48"/>
	<path fill="#293674" d="M289.166,51.107c0.139,0.416,0.139,1.252,0.139,2.086c0,0.836-0.139,1.67-0.279,1.947v1.529
		c-0.278,0.836-0.417,1.67-0.417,2.504c0,0.835-0.138,1.531-0.417,2.365c-0.14,0.695-0.278,1.391-0.417,2.226
		c-0.14,0.695-0.418,1.529-0.695,2.225c-0.557,1.392-1.113,2.644-1.669,3.756c-0.557,1.112-1.252,2.226-1.948,3.338
		c-0.417,0.695-0.974,1.391-1.529,1.947c-0.557,0.557-1.112,1.253-1.669,1.808l-0.834,0.836c-0.419,0.417-0.836,0.695-1.253,1.112
		c-0.417,0.278-0.834,0.695-1.252,0.974c-0.695,0.417-1.251,0.834-2.086,1.251c-0.695,0.417-1.529,0.695-2.363,1.112
		c-0.836,0.419-1.531,0.696-2.365,0.836c-0.835,0.139-1.669,0.278-2.503,0.417c-0.419,0.139-0.975,0.278-1.531,0.278
		c-0.556,0-1.112,0.139-1.529,0.278h-1.112c-0.695,0.139-1.253,0.139-1.81,0h-1.251c-0.417-0.14-0.974-0.278-1.53-0.14
		c-0.556,0-0.973,0-1.53-0.139c-1.252-0.417-2.503-0.695-3.615-1.112c-1.114-0.278-2.227-0.836-3.2-1.391
		c-0.556-0.279-1.112-0.696-1.529-0.975c-0.417-0.417-0.974-0.695-1.529-1.112c-0.278-0.278-0.836-0.557-1.392-1.113
		c-0.557-0.556-1.113-0.556-1.669-0.139c-0.417,0.278-0.557,0.557-0.557,0.834c0,0.418-0.139,0.835-0.278,1.252
		c-0.139,0.834-0.277,1.67-0.139,2.782c0,0.974,0,1.947,0,2.781v12.102c0,0.974,0,2.086,0,3.06c0,0.975-0.278,1.809-0.695,2.365
		c-0.278,0.277-0.695,0.556-1.253,0.695c-0.695,0.139-1.391,0.277-2.086,0.277c-0.834,0-1.529,0-2.363,0c-0.836,0-1.392,0-1.948,0
		h-3.198h-0.836c-0.277,0-0.556,0-0.834-0.139h-0.695c-1.391-0.417-2.086-1.112-2.086-2.365c-0.139-1.112-0.139-2.503-0.139-4.032
		V28.018c0-0.834,0-1.808,0-2.782s0.139-1.808,0.556-2.365c0.278-0.556,0.695-0.973,1.252-1.112
		c0.417-0.139,0.834-0.279,1.529-0.279h1.67h5.702h2.226c0.695,0,1.251,0.14,1.809,0.557c0.557,0.417,0.834,0.834,0.834,1.529
		c0,0.557,0.278,1.252,0.557,1.809c0.139,0.278,0.139,0.417,0.278,0.556c0.139,0.139,0.278,0.279,0.417,0.417
		c0.834,0.139,1.529-0.138,2.086-0.695c0.558-0.556,1.112-0.973,1.67-1.391c0.974-0.695,2.086-1.391,3.198-1.947
		s2.365-1.112,3.616-1.53c0.695-0.278,1.252-0.417,2.086-0.417c0.695-0.139,1.531-0.139,2.227-0.417
		c0.278-0.139,0.695-0.139,0.974,0c0.277,0.139,0.695,0,0.834-0.139c4.451-0.139,8.346,0.417,11.405,1.808
		c3.061,1.391,5.702,3.199,7.929,5.424c0.417,0.417,0.695,0.834,1.112,1.113c0.278,0.417,0.695,0.695,0.974,1.112
		c0.556,0.696,1.113,1.391,1.53,2.086c0.417,0.696,0.834,1.391,1.252,2.086c0.139,0.139,0.277,0.417,0.277,0.556
		c0,0.278,0.14,0.557,0.278,0.835c0.417,0.834,0.835,1.669,1.252,2.782c0.139,0.417,0.278,0.974,0.417,1.53s0.278,1.113,0.417,1.53
		c0.278,0.973,0.557,1.947,0.695,2.921c0.141,0.973,0.278,2.086,0.558,3.2c0,0.417,0,0.834,0,1.251c0,0.418,0.138,0.974,0.138,1.391
		v1.67H289.166z M272.476,53.889c0.138-0.417,0.138-0.974,0.138-1.529c0-0.695,0-1.252-0.138-1.531v-1.112
		c-0.141-0.417-0.279-0.974-0.279-1.529c0-0.557-0.14-1.112-0.278-1.669c-0.139-0.834-0.278-1.53-0.417-2.365
		c-0.14-0.695-0.417-1.391-0.695-2.086c-0.974-2.504-2.227-4.59-3.617-5.981c-1.529-1.529-3.615-2.643-6.397-3.338
		c-0.695-0.139-1.252-0.278-2.086-0.278h-2.226c-0.278,0.139-0.557,0.139-0.835,0.139s-0.556,0-0.834,0.139
		c-0.557,0.139-1.112,0.278-1.53,0.417c-0.556,0.139-0.973,0.278-1.53,0.556c-2.086,0.835-3.615,2.226-4.729,4.034
		c-1.112,1.808-2.086,3.894-2.781,5.98c-0.139,0.695-0.277,1.252-0.417,1.948c-0.139,0.695-0.139,1.251-0.417,1.947
		c-0.139,0.278-0.139,0.835-0.139,1.53c-0.14,0.277-0.14,0.695-0.14,1.113c0.14,0.416,0.14,0.834,0,1.25
		c-0.141,0.419-0.141,0.975,0,1.253v1.391v1.112c0,0.279,0.14,0.695,0.278,0.975c0,0.557,0,0.974,0.139,1.252
		c0.14,0.417,0.14,0.973,0.278,1.391c0.14,0.417,0.14,0.973,0.417,1.391c0.695,2.226,1.53,4.173,2.505,5.564
		c0.972,1.391,2.363,2.781,4.172,3.894c1.113,0.695,2.364,1.112,3.895,1.529c0.278,0.141,0.556,0.141,0.834,0
		c0.278,0,0.557,0,0.835,0c0.277,0.141,0.834,0.141,1.392,0.141c0.695,0,1.112,0,1.529,0c0.695-0.141,1.252-0.278,1.947-0.419
		c0.696-0.139,1.251-0.276,1.947-0.556c1.947-0.835,3.477-1.947,4.589-3.338c1.114-1.392,2.227-3.061,2.922-5.007
		c0.417-0.974,0.695-1.948,0.834-2.922c0.14-0.973,0.417-2.086,0.557-3.199c0-0.416,0-0.834,0-1.111
		C272.196,54.584,272.476,54.306,272.476,53.889"/>
	<path fill="#4AA946" d="M119.895,131.083c1.391-3.199,2.363-6.536,2.644-10.153H97.779v4.451h19.61l-1.11,2.781
		c-0.976,2.644-2.366,5.007-4.173,7.233c-1.671,2.086-3.757,4.032-5.982,5.563c-2.225,1.529-4.729,2.782-7.371,3.616
		c-2.642,0.835-5.563,1.252-8.346,1.252c-3.755,0-7.371-0.695-10.71-2.227c-3.339-1.391-6.259-3.477-8.762-5.98
		c-2.503-2.503-4.451-5.424-5.98-8.9c-1.391-3.339-2.225-7.095-2.225-10.851c0-3.754,0.695-7.51,2.225-10.849
		c1.391-3.337,3.477-6.397,5.98-8.9c2.503-2.505,5.423-4.451,8.762-5.982c3.339-1.391,6.955-2.225,10.71-2.225
		c4.868,0,9.319,1.112,13.354,3.478c3.478,1.947,6.397,4.451,8.623,7.511l3.755-2.504c-2.642-3.616-6.119-6.677-10.153-8.901
		c-4.729-2.644-9.874-4.034-15.578-4.034c-4.451,0-8.762,0.836-12.657,2.504C73.856,89.635,70.38,92,67.598,94.92
		c-2.921,2.922-5.147,6.398-6.815,10.293c-1.669,3.895-2.505,8.067-2.505,12.518c0,4.451,0.835,8.624,2.505,12.519
		c1.668,3.895,4.034,7.371,6.815,10.293c2.92,2.92,6.259,5.285,10.152,6.954c3.896,1.668,8.068,2.504,12.657,2.504
		c4.312,0,8.485-0.836,12.379-2.504c3.896-1.669,7.233-3.896,10.154-6.677C115.86,138.315,118.085,134.839,119.895,131.083z"/>
	<path fill="#4AA946" d="M167.88,148.609h5.702l-17.247-23.646l3.477-0.557c2.227-0.278,4.313-0.975,6.26-2.087
		c1.947-1.112,3.617-2.364,5.008-4.032c1.391-1.67,2.503-3.478,3.337-5.563c0.836-2.087,1.253-4.312,1.253-6.678
		c0-2.503-0.556-4.868-1.392-7.093c-0.972-2.225-2.363-4.312-4.033-5.98c-1.669-1.67-3.616-3.061-5.979-4.034
		c-2.227-0.974-4.591-1.529-7.095-1.529h-25.731v61.059h4.59v-23.922h14.188L167.88,148.609z M136.028,92h21.142
		c1.946,0,3.756,0.417,5.424,1.112c1.671,0.695,3.2,1.808,4.452,3.06c1.251,1.253,2.226,2.782,2.921,4.451
		c0.695,1.67,0.973,3.616,0.973,5.424c0,1.81-0.416,3.756-0.973,5.425c-0.695,1.67-1.67,3.199-2.921,4.451
		c-1.252,1.251-2.781,2.225-4.452,3.061c-1.668,0.695-3.478,1.112-5.424,1.112h-21.142V92z"/>
	<path fill="#4AA946" d="M227.41,129.971l7.928,18.776h4.729l-25.731-61.059h-5.702l-25.731,61.059h4.729l7.789-18.776H227.41z
		 M211.553,92.138l14.049,33.382h-28.234L211.553,92.138z"/>
	<polygon fill="#4AA946" points="295.842,148.609 295.842,87.549 291.112,87.549 291.112,141.793 255.506,87.549 249.942,87.549 
		249.942,148.609 254.532,148.609 254.532,94.225 290.417,148.609 	"/>
	<polygon fill="#4AA946" points="348,87.549 304.742,87.549 304.742,91.721 324.076,91.721 324.076,148.609 328.666,148.609 
		328.666,91.721 348,91.721 	"/>
</g>
</svg>
