<?xml version="1.0" encoding="utf-8"?>
<!-- Generator: Adobe Illustrator 15.0.0, SVG Export Plug-In  -->
<!DOCTYPE svg PUBLIC "-//W3C//DTD SVG 1.1//EN" "http://www.w3.org/Graphics/SVG/1.1/DTD/svg11.dtd" [
	<!ENTITY ns_flows "http://ns.adobe.com/Flows/1.0/">
]>
<svg version="1.1"
	 xmlns="http://www.w3.org/2000/svg" xmlns:xlink="http://www.w3.org/1999/xlink" xmlns:a="http://ns.adobe.com/AdobeSVGViewerExtensions/3.0/"
	 x="0px" y="0px" width="412px" height="62px" viewBox="0 0 412 62" overflow="visible" enable-background="new 0 0 412 62"
	 xml:space="preserve">
<defs>
</defs>
<path fill="#293674" d="M42.8,1.7c0.4,0.3,0.6,0.8,0.6,1.4c0,0.7,0,1.3,0,2v36.3c0,0.5,0,0.9,0,1.3c0,0.4,0,0.9,0,1.3
	c-0.1,0.5-0.1,0.9-0.1,1.2c0,0.4-0.1,0.8-0.1,1.2c-0.2,0.8-0.4,1.5-0.6,2.3c-0.1,0.7-0.4,1.4-0.6,2c-1,2.2-2.2,3.9-3.7,5.4
	c-1.5,1.4-3.3,2.6-5.5,3.5c-0.6,0.3-1.2,0.5-1.9,0.7c-0.6,0.2-1.3,0.3-2,0.5c-0.6,0.2-1.2,0.3-1.9,0.3c-0.6,0.1-1.2,0.1-1.9,0.3
	c-0.2,0-0.5,0-0.7,0c-0.2,0-0.5,0-0.8,0c-0.2,0.1-0.5,0.1-0.8,0c-0.3,0-0.6,0-0.9,0c-0.3,0.1-0.7,0.1-1.1,0.1c-0.5,0-0.8,0-1.1-0.1
	h-0.8c-0.2,0-0.5,0-0.7-0.1c-0.5-0.1-0.9-0.2-1.4-0.2c-0.5,0-0.9-0.1-1.3-0.2c-0.1-0.1-0.3-0.1-0.4-0.1S15.1,61,15,61
	c-0.6-0.1-1.1-0.2-1.7-0.4c-0.5-0.1-1.1-0.3-1.6-0.6c-2.2-0.9-4.1-2.1-5.8-3.4C4.2,55.2,3,53.3,2.2,51C2.1,50.8,2,50.7,2,50.5
	s0-0.3-0.1-0.4c-0.2-0.7-0.1-1.3,0.2-1.7c0.3-0.4,0.8-0.6,1.3-0.7c0.6-0.1,1.2-0.2,1.9-0.1c0.7,0,1.4,0,2,0h2.9c0.3,0,0.5,0,0.7,0
	c0.2,0,0.4,0,0.7,0c0.9,0.2,1.5,0.5,1.7,0.9c0.2,0.4,0.6,0.9,1,1.5c0.2,0.2,0.4,0.5,0.8,0.9c0.1,0.1,0.1,0.2,0.2,0.3
	c0.1,0.1,0.1,0.1,0.2,0.3c0.5,0.3,0.9,0.7,1.4,0.9c0.5,0.3,1.1,0.5,1.7,0.8c0.4,0.1,0.8,0.2,1.2,0.2c0.4,0,0.8,0.1,1.3,0.2h0.9
	c0.4,0.1,0.9,0.1,1.5,0c0.6-0.1,1.1-0.2,1.4-0.3c0.3-0.1,0.5-0.2,0.7-0.2c0.2,0,0.4-0.1,0.6-0.2c1.2-0.5,2.2-1.2,3-2
	c0.8-0.9,1.4-1.8,2-3c0.1-0.3,0.2-0.7,0.3-1c0.1-0.3,0.1-0.7,0.3-1.1c0.1-0.5,0.2-1.1,0.2-1.7c0-0.6,0-1.2,0-1.8c0-0.2,0-0.5,0-0.7
	c0-0.2,0-0.4,0-0.6C32,40.8,32,40.5,32,40.3c0-0.2,0-0.5-0.1-0.7c-0.1-0.1-0.1-0.2-0.2-0.3s-0.2-0.1-0.3-0.3
	c-0.5-0.1-0.9,0.1-1.2,0.3c-0.3,0.3-0.6,0.5-0.9,0.8c-0.5,0.4-1,0.8-1.5,1.1c-0.5,0.3-1.1,0.7-1.7,0.9c-0.6,0.3-1.2,0.5-1.9,0.7
	c-0.6,0.2-1.3,0.3-2,0.5c-0.3,0.1-0.7,0.1-1,0.1c-0.3,0-0.6,0.1-0.9,0.1c-0.3,0.1-0.7,0.1-1.4,0.1c-0.6,0-1.1,0-1.4-0.1h-0.7
	c-0.2-0.1-0.4-0.1-0.6-0.1s-0.4,0-0.6-0.1c-0.8-0.2-1.6-0.3-2.3-0.5c-0.7-0.1-1.4-0.4-2-0.6c-2.4-1-4.4-2.3-5.9-4
	c-1.5-1.7-2.8-3.8-3.8-6.2c-0.3-0.6-0.5-1.3-0.6-2c-0.1-0.7-0.3-1.4-0.5-2c0-0.3,0-0.5-0.1-0.7C0.4,27,0.3,26.5,0.3,26
	c0-0.5-0.1-1-0.2-1.5c-0.1-0.3-0.1-0.6-0.1-0.8v-0.8C0,22.6,0,22.2,0,21.8c0-0.4,0-0.8,0.1-1.1v-0.8c0.1-0.2,0.1-0.5,0-0.7
	c0-0.2,0-0.5,0.1-0.7c0.1-0.6,0.2-1.1,0.3-1.7c0.1-0.5,0.1-1.1,0.3-1.7C1.1,14.1,1.5,13,1.8,12c0.4-1,0.8-2,1.4-2.9
	c0.3-0.6,0.6-1.1,1-1.6C4.6,7.1,5,6.6,5.4,6c0.2-0.3,0.4-0.6,0.7-0.8C6.4,4.9,6.7,4.7,7,4.4l0.5-0.5C7.8,3.7,8,3.5,8.3,3.3
	c0.3-0.2,0.6-0.4,0.9-0.6c0.7-0.5,1.5-0.9,2.3-1.2c0.8-0.3,1.7-0.7,2.6-0.9c0.5-0.2,0.9-0.3,1.4-0.3c0.5,0,0.9-0.1,1.4-0.2
	c0.2-0.1,0.5-0.1,0.9,0c0.4,0.1,0.7,0,0.8-0.1c1.8-0.1,3.4,0.1,4.9,0.5c1.4,0.4,2.7,1,3.9,1.7c0.2,0.1,0.3,0.2,0.5,0.4
	c0.2,0.1,0.4,0.3,0.6,0.5c0.3,0.3,0.7,0.6,0.9,0.8c0.3,0.3,0.6,0.5,1,0.8c0.1,0.1,0.3,0.1,0.5,0.2c0.2,0.1,0.4,0,0.5-0.1
	c0.3-0.1,0.5-0.3,0.5-0.6c0.1-0.3,0.1-0.6,0.3-0.9c0.1-0.3,0.2-0.6,0.3-0.9c0.1-0.3,0.2-0.6,0.5-0.8c0.3-0.2,0.8-0.4,1.2-0.4
	c0.5,0,1,0,1.5,0h4.3c0.6,0,1.2,0,1.7,0C42.1,1.3,42.5,1.4,42.8,1.7 M31.2,28c0.2-0.5,0.4-1.2,0.6-2c0.2-0.8,0.3-1.6,0.3-2.5
	c0.1-0.9,0.1-1.7,0-2.6c0-0.8-0.1-1.6-0.3-2.3c-0.1-0.2-0.2-0.4-0.1-0.6c0-0.1,0-0.3,0-0.6c-0.1-0.4-0.2-0.8-0.3-1.2
	c-0.1-0.4-0.3-0.8-0.4-1.1c-0.8-2-1.9-3.5-3.4-4.6C26.1,9.6,23.9,9,21.1,9c-0.1,0.1-0.3,0.2-0.5,0.1c-0.2,0-0.4,0-0.6,0
	c-0.4,0.1-0.8,0.2-1.1,0.3c-0.3,0.1-0.7,0.2-1,0.3c-1.5,0.6-2.6,1.6-3.4,2.8c-0.8,1.2-1.4,2.6-2,4.2c-0.1,0.3-0.2,0.5-0.2,0.7
	s0,0.4-0.1,0.7c-0.2,0.6-0.3,1.5-0.3,2.7c-0.1,1.2,0,2.2,0.2,2.9v0.9c0.1,0.5,0.2,0.9,0.3,1.3c0.1,0.4,0.1,0.9,0.3,1.3
	c0.5,1.5,1.1,2.8,1.9,3.9c0.7,1.1,1.8,2,3.1,2.7c0.6,0.3,1.4,0.6,2.4,0.9c0.4,0,0.7,0,0.9,0.1c0.1,0,0.3,0,0.5,0c0.2,0,0.4,0,0.5,0
	h0.9c0.5-0.1,1-0.2,1.4-0.3c0.5-0.1,0.9-0.2,1.4-0.4c1.4-0.6,2.6-1.4,3.4-2.4C29.9,30.6,30.6,29.4,31.2,28"/>
<path fill="#293674" d="M72.2,0.1c0.6,0,1.2,0.1,1.7,0.2c0.5,0.1,0.9,0.4,1.1,0.8c0.3,0.5,0.5,1.2,0.5,2.3v2.9c0,0.6,0,1.3,0,2.1
	c0,0.8-0.1,1.4-0.3,1.9c-0.2,0.4-0.6,0.7-1,0.8c-0.4,0.1-0.9,0.2-1.4,0.2c-0.5,0-1.1,0-1.7-0.1c-0.6-0.1-1.1,0-1.7,0.1
	c-0.4,0.1-0.8,0.2-1.2,0.2c-0.4,0-0.8,0.1-1.1,0.2c-0.9,0.3-1.8,0.7-2.7,1.2c-0.9,0.5-1.6,1.1-2.1,1.8c-0.3,0.5-0.6,0.9-0.9,1.4
	c-0.3,0.5-0.6,1-0.9,1.5c-0.2,0.5-0.3,0.9-0.5,1.4c-0.1,0.5-0.3,0.9-0.4,1.4c-0.1,0.4-0.2,0.8-0.2,1.2c0,0.4-0.1,0.8-0.2,1.2
	c-0.1,0.2-0.1,0.4,0,0.6c0,0.2,0,0.4,0,0.6v1.4c-0.1,0.4-0.1,0.8-0.1,1.3c0.1,0.5,0.1,1,0.1,1.4v5.4v7.2c0,0.7,0,1.4-0.1,2
	c-0.1,0.6-0.2,1.1-0.5,1.5c-0.1,0.2-0.3,0.3-0.6,0.4c-0.3,0.1-0.5,0.2-0.8,0.2h-0.4c-0.3,0.1-0.6,0.1-0.9,0.1h-0.9h-3.7
	C51.1,45,50.7,45,50.4,45h-1.1c-0.3-0.1-0.6-0.2-0.9-0.3c-0.3-0.1-0.5-0.3-0.6-0.6c-0.2-0.3-0.4-0.7-0.4-1.2c0-0.5,0-1.1,0-1.7v-5.8
	v-24V5.2V3.5c0-0.5,0.1-1,0.3-1.3C48,1.8,48.4,1.5,49,1.4c0.6-0.1,1.2-0.2,2-0.2h4.3c0.7,0,1.3,0,1.8,0.1c0.5,0.1,0.9,0.4,1.2,0.8
	c0.2,0.3,0.3,0.7,0.3,1.2c0,0.5,0.1,1,0.1,1.5c0.1,0.5,0.2,0.9,0.3,1.3c0.1,0.4,0.4,0.6,0.8,0.6c0.1-0.1,0.2-0.2,0.3-0.2
	c0.1,0,0.2-0.1,0.3-0.2c0.3-0.3,0.6-0.6,0.9-1c0.3-0.4,0.6-0.7,1-1c0.2-0.2,0.4-0.4,0.6-0.6c0.2-0.2,0.4-0.4,0.6-0.6
	c0.5-0.3,1-0.7,1.6-1c0.5-0.3,1.1-0.6,1.7-0.9c0.6-0.2,1.1-0.4,1.7-0.6c0.6-0.2,1.2-0.3,1.8-0.5c0.2-0.1,0.5-0.1,1,0
	C71.8,0.3,72.1,0.2,72.2,0.1"/>
<path fill="#293674" d="M116.8,21.3c0.1,0.3,0.2,0.8,0.2,1.4c0,0.6-0.1,1.1-0.2,1.4v0.9c-0.1,0.5-0.2,0.9-0.1,1.4
	c0,0.5,0,0.9-0.1,1.4c-0.1,0.4-0.2,0.8-0.3,1.1c-0.1,0.3-0.1,0.7-0.2,1.1c-0.2,0.6-0.4,1.3-0.6,1.9c-0.2,0.7-0.4,1.3-0.7,1.8
	c-1.2,2.7-2.7,4.9-4.7,6.6c-1.9,1.7-4.2,3.1-7,4.2c-0.7,0.3-1.4,0.5-2.1,0.6c-0.7,0.1-1.4,0.3-2.2,0.5c-0.3,0.1-0.6,0.2-0.9,0.2
	c-0.3,0-0.7,0-0.9,0.1c-0.2,0-0.4,0-0.6,0c-0.2,0-0.4,0-0.6,0c-0.3,0.1-0.7,0.1-1.4,0.1c-0.6,0-1.1,0-1.4-0.1h-0.9
	C92,46,91.7,46,91.4,46c-0.3,0-0.6,0-0.9-0.1c-0.2-0.1-0.4-0.1-0.6-0.1c-0.2,0-0.4,0-0.7-0.1c-0.6-0.2-1.1-0.3-1.7-0.4
	c-0.6-0.1-1.1-0.3-1.6-0.5c-0.7-0.2-1.3-0.5-1.9-0.7c-0.6-0.2-1.2-0.5-1.8-0.8c-2-1.2-3.7-2.6-5.1-4.2c-1.4-1.6-2.6-3.5-3.6-5.7
	c-0.3-0.5-0.5-1-0.6-1.6c-0.1-0.6-0.3-1.2-0.5-1.8c-0.1-0.3-0.2-0.5-0.2-0.8c0-0.2-0.1-0.5-0.2-0.8c-0.1-0.5-0.2-0.9-0.2-1.4
	c0-0.5-0.1-0.9-0.2-1.4c-0.1-0.3-0.1-0.5-0.1-0.8v-0.8c-0.1-0.3-0.2-0.8-0.1-1.4c0-0.6,0.1-1.1,0.2-1.4v-0.6c0.1-0.3,0.1-0.6,0-0.9
	c0-0.3,0-0.6,0.1-0.9c0.1-0.3,0.1-0.6,0.1-0.8c0-0.3,0.1-0.5,0.2-0.8c0.2-0.7,0.4-1.5,0.6-2.2c0.2-0.7,0.4-1.4,0.7-2.1
	c1-2.3,2.2-4.3,3.7-5.8c1.4-1.6,3.1-3,5.2-4.3c0.6-0.3,1.2-0.5,1.8-0.8c0.6-0.2,1.2-0.5,1.9-0.8c0.7-0.3,1.5-0.5,2.3-0.6
	c0.8-0.1,1.6-0.3,2.5-0.5c0.5-0.1,0.9-0.1,1.3-0.1c0.4,0,0.8,0,1.2-0.1c3.3-0.1,6.1,0.3,8.5,1c2.4,0.7,4.5,1.8,6.4,3.1
	c0.6,0.5,1.3,0.9,1.9,1.5c0.6,0.5,1.2,1.1,1.7,1.7c0.5,0.6,0.9,1.1,1.2,1.7c0.4,0.6,0.8,1.2,1.1,1.8c0.4,0.6,0.7,1.3,0.9,2
	c0.2,0.7,0.5,1.5,0.8,2.3c0.2,0.5,0.3,0.9,0.4,1.4c0.1,0.5,0.2,1,0.3,1.5c0.1,0.2,0.1,0.5,0.1,0.7s0,0.5,0.1,0.7
	c0.1,0.3,0.1,0.6,0.1,0.9C116.6,20.8,116.7,21.1,116.8,21.3 M104.9,24.4c0.1-0.3,0.1-0.7,0.1-1.2c0-0.5,0-0.9-0.1-1.2v-0.7
	c-0.1-0.3-0.2-0.6-0.2-0.9c0-0.3,0-0.7-0.1-0.9c0-0.2,0-0.4-0.1-0.5c-0.1-0.5-0.2-0.9-0.3-1.4c-0.1-0.5-0.2-0.9-0.4-1.4
	c-0.6-1.5-1.4-2.7-2.2-3.8c-0.9-1-2-1.9-3.4-2.5c-0.3-0.1-0.7-0.2-1-0.3c-0.3-0.1-0.7-0.2-1.1-0.3c-0.5-0.1-0.9-0.2-1.4-0.1
	c-0.5,0-1,0-1.5,0c-0.2,0.1-0.4,0.2-0.6,0.1c-0.2,0-0.4,0-0.6,0c-0.4,0.1-0.8,0.2-1.1,0.3c-0.4,0.1-0.7,0.2-1,0.4
	c-1.4,0.6-2.6,1.5-3.4,2.7c-0.9,1.2-1.6,2.5-2.1,4c-0.2,0.6-0.3,1.2-0.4,1.8c-0.1,0.6-0.2,1.2-0.3,1.9c-0.1,0.3-0.1,0.6-0.1,0.9V22
	c-0.1,0.4-0.2,1-0.1,1.8c0,0.8,0.1,1.4,0.2,1.8v0.8c0.1,0.5,0.2,0.9,0.3,1.3c0.1,0.4,0.1,0.9,0.3,1.3c0.6,1.7,1.2,3.1,1.8,4.1
	c0.7,1,1.7,2,3.1,2.8c0.4,0.3,0.8,0.5,1.3,0.7c0.5,0.2,1,0.3,1.5,0.4c0.2,0.1,0.4,0.1,0.6,0c0.2,0,0.4,0,0.6,0
	c0.2,0.1,0.5,0.1,0.7,0.1c0.3,0,0.5,0,0.7,0h0.7c0.5-0.1,0.9-0.2,1.4-0.3c0.5-0.1,0.9-0.2,1.3-0.3c1.5-0.6,2.7-1.3,3.6-2.3
	c0.9-1,1.7-2.2,2.3-3.6c0.2-0.6,0.4-1.1,0.5-1.7c0.1-0.6,0.3-1.2,0.4-1.8c0.1-0.2,0.1-0.4,0.1-0.6c0-0.2,0-0.4,0.1-0.6v-0.8
	C104.8,25,104.8,24.7,104.9,24.4"/>
<path fill="#293674" d="M121.1,1.3h6.4c0.6,0,1.2,0,1.7,0.1c0.5,0.1,0.9,0.3,1.1,0.6c0.3,0.3,0.5,0.8,0.5,1.4
	c0.1,0.6,0.1,1.2,0.1,1.8v5.9v12.7c0,2,0.1,4,0.3,5.8c0.2,1.8,0.7,3.3,1.5,4.5c0.8,1.2,2.1,2,3.8,2.5c0.3,0.1,0.5,0.1,0.7,0.1
	c0.2,0,0.4,0,0.7,0.1c0.3,0.1,0.6,0.1,0.9,0.1c0.3,0,0.6,0,0.8-0.1c0.3-0.1,0.5-0.1,0.7-0.1c0.2,0.1,0.4,0,0.6-0.1
	c1.2-0.3,2.1-0.7,2.8-1.1c1-0.6,1.8-1.4,2.4-2.4c0.6-1,1-2.1,1.3-3.3c0.3-1.2,0.4-2.6,0.5-4.1c0.1-1.5,0.1-3.1,0.1-4.7V10.7V5.2V3.6
	c0-0.5,0.1-1,0.3-1.3c0.3-0.5,0.7-0.8,1.3-0.9c0.6-0.1,1.2-0.1,2-0.1h4.5h1.6c0.5,0,0.9,0.1,1.3,0.3c0.5,0.3,0.7,0.7,0.8,1.3
	c0.1,0.6,0.1,1.2,0.1,2v6.5v23.9v6v1.7c0,0.6-0.1,1-0.3,1.3c-0.3,0.5-0.7,0.7-1.3,0.8c-0.6,0.1-1.2,0.1-1.8,0.1H152
	c-0.6,0-1.2,0-1.7-0.1c-0.5-0.1-0.9-0.3-1.1-0.7c-0.1-0.2-0.2-0.4-0.3-0.8c-0.1-0.3-0.2-0.7-0.3-1s-0.2-0.7-0.3-0.9
	c-0.1-0.3-0.3-0.5-0.5-0.5c-0.1-0.1-0.3-0.1-0.4-0.1c-0.2,0.1-0.3,0.1-0.4,0.2c-0.4,0.2-0.7,0.5-1,0.8c-0.3,0.3-0.6,0.5-0.9,0.8
	c-0.2,0.2-0.4,0.4-0.6,0.6c-0.2,0.2-0.4,0.4-0.7,0.6c-1.3,0.8-2.8,1.4-4.6,1.9c-0.4,0.1-0.8,0.2-1.2,0.2c-0.4,0-0.8,0.1-1.3,0.2
	c-0.2,0.1-0.5,0.1-0.7,0c-0.3,0-0.5,0-0.7,0c-0.2,0.1-0.5,0.1-1.1,0c-0.5,0-0.9-0.1-1.1-0.1c-0.3,0-0.6,0-0.9,0c-0.3,0-0.6,0-0.8,0
	c-0.7-0.2-1.3-0.3-2-0.4c-0.6-0.1-1.2-0.3-1.9-0.5c-0.3-0.1-0.5-0.2-0.7-0.3c-0.2-0.1-0.4-0.2-0.7-0.3c-2-1.1-3.6-2.6-4.8-4.5
	c-0.7-1.2-1.3-2.6-1.6-4.3c-0.3-1.7-0.6-3.5-0.6-5.4c-0.1-1.9-0.1-3.9-0.1-5.9c0-2,0-4,0-6V6.9c0-0.7,0-1.6,0-2.6
	c0-1,0.1-1.7,0.4-2.2c0.2-0.3,0.5-0.5,1-0.8C120.7,1.4,121,1.3,121.1,1.3"/>
<path fill="#293674" d="M202.9,34.1c-1.4-3.2-2.1-6.6-2.1-10.2c0-3.6,0.7-7,2.1-10.2c0.6-1.3,1.2-2.5,2-3.7c-0.3-0.5-0.6-1-0.9-1.5
	c-0.3-0.5-0.7-1-1.1-1.5c-0.2-0.3-0.5-0.6-0.7-0.8c-0.2-0.3-0.5-0.5-0.8-0.8c-1.6-1.6-3.5-2.9-5.7-3.9c-2.2-1-5-1.4-8.2-1.3
	c-0.2,0.1-0.4,0.1-0.6,0.1c-0.3-0.1-0.5-0.1-0.7,0c-0.5,0.1-1,0.2-1.6,0.3c-0.5,0.1-1,0.2-1.5,0.3c-1,0.3-1.8,0.6-2.6,1.1
	c-0.8,0.4-1.6,0.9-2.3,1.4c-0.4,0.3-0.8,0.6-1.2,1c-0.4,0.4-0.9,0.6-1.5,0.5c-0.1-0.1-0.2-0.2-0.3-0.3c-0.1-0.1-0.2-0.2-0.2-0.4
	c-0.2-0.5-0.4-0.9-0.4-1.3c0-0.4-0.2-0.8-0.6-1.1c-0.3-0.3-0.8-0.4-1.3-0.4H171h-4.1h-1.2c-0.4,0-0.8,0.1-1.1,0.2
	c-0.4,0.1-0.7,0.4-0.9,0.8c-0.3,0.4-0.4,1-0.4,1.7c0,0.7,0,1.4,0,2v49.9c0,1.1,0,2.1,0.1,2.9c0.1,0.8,0.6,1.4,1.5,1.7h0.7
	c0.2,0.1,0.4,0.1,0.6,0.1h0.6h2.3c0.4,0,0.9,0,1.4,0c0.6,0,1.1,0,1.7,0c0.6,0,1.1-0.1,1.5-0.2c0.5-0.1,0.8-0.3,0.9-0.5
	c0.3-0.5,0.4-1,0.5-1.7c0-0.7,0-1.4,0-2.2v-8.7c0-0.6,0-1.3,0-2c0-0.7,0-1.4,0.1-2c0.1-0.3,0.2-0.6,0.2-0.9c0-0.3,0.1-0.5,0.4-0.6
	c0.3-0.3,0.7-0.3,1.2,0.1c0.5,0.3,0.8,0.6,1,0.8c0.4,0.3,0.8,0.6,1.1,0.8c0.3,0.3,0.7,0.5,1.1,0.7c0.7,0.5,1.4,0.8,2.3,1
	c0.8,0.2,1.7,0.5,2.6,0.8c0.3,0.1,0.7,0.2,1.1,0.1c0.4,0,0.7,0,1.1,0.1h0.9c0.4,0.1,0.8,0.1,1.3,0h0.8c0.4-0.1,0.8-0.2,1.1-0.2
	c0.4,0,0.7-0.1,1.1-0.2c0.6-0.1,1.2-0.2,1.8-0.3c0.6-0.1,1.2-0.3,1.7-0.6c0.6-0.3,1.1-0.6,1.7-0.8c0.5-0.3,1-0.6,1.5-0.9
	c0.3-0.2,0.6-0.5,0.9-0.7c0.3-0.2,0.6-0.5,0.9-0.8l0.6-0.6c0.5-0.5,0.9-0.9,1.2-1.3c0.4-0.4,0.7-0.9,1.1-1.4
	c0.2-0.4,0.5-0.8,0.7-1.2C203.9,36.2,203.4,35.2,202.9,34.1z M195.9,24.6c0,0.3,0,0.6,0,0.9c0,0.3,0,0.6,0,0.8
	c-0.2,0.8-0.3,1.6-0.4,2.3c-0.1,0.7-0.3,1.4-0.6,2.1c-0.6,1.4-1.3,2.5-2.1,3.6c-0.9,1-2,1.8-3.3,2.4c-0.5,0.2-0.9,0.3-1.4,0.4
	c-0.5,0.1-0.9,0.2-1.4,0.3c-0.3,0.1-0.7,0.1-1.1,0c-0.5,0-0.8-0.1-1-0.1s-0.4-0.1-0.6,0c-0.2,0-0.4,0-0.6,0c-1.1-0.3-2-0.7-2.8-1.1
	c-1.3-0.8-2.3-1.7-3-2.8c-0.7-1-1.3-2.4-1.8-4c-0.1-0.3-0.2-0.7-0.3-1c-0.1-0.3-0.1-0.7-0.2-1c-0.1-0.2-0.1-0.5-0.1-0.9
	c-0.1-0.2-0.2-0.5-0.2-0.7v-0.8v-1c-0.1-0.3-0.1-0.6,0-0.9c0.1-0.3,0.1-0.6,0-0.9c-0.1-0.3,0-0.6,0.1-0.8c0-0.5,0-0.9,0.1-1.1
	c0.1-0.5,0.2-0.9,0.3-1.4c0.1-0.5,0.1-0.9,0.3-1.4c0.5-1.6,1.2-3,2-4.3c0.8-1.3,2-2.3,3.4-2.9c0.3-0.2,0.7-0.3,1.1-0.4
	c0.4-0.1,0.8-0.2,1.1-0.3c0.2-0.1,0.4-0.1,0.6-0.1s0.4,0,0.6-0.1h1.6c0.5,0,1,0.1,1.5,0.2c2,0.5,3.5,1.3,4.6,2.4
	c1.1,1.1,2,2.5,2.6,4.3c0.2,0.5,0.4,1,0.5,1.5c0.1,0.5,0.2,1.1,0.3,1.7c0.1,0.4,0.2,0.8,0.2,1.2c0,0.4,0.1,0.8,0.2,1.1v0.8
	c0.1,0.3,0.1,0.7,0.1,1.1C196,23.9,196,24.3,195.9,24.6z"/>
<path fill="#4AA946" d="M248.1,33.2c1-2.3,1.7-4.7,1.9-7.3h-17.7v3.2h14.1l-0.8,2c-0.7,1.9-1.7,3.6-3,5.2c-1.2,1.5-2.7,2.9-4.3,4
	c-1.6,1.1-3.4,2-5.3,2.6c-1.9,0.6-4,0.9-6,0.9c-2.7,0-5.3-0.5-7.7-1.6c-2.4-1-4.5-2.5-6.3-4.3c-1.8-1.8-3.2-3.9-4.3-6.4
	c-1-2.4-1.6-5.1-1.6-7.8c0-2.7,0.5-5.4,1.6-7.8c1-2.4,2.5-4.6,4.3-6.4c1.8-1.8,3.9-3.2,6.3-4.3c2.4-1,5-1.6,7.7-1.6
	c3.5,0,6.7,0.8,9.6,2.5c2.5,1.4,4.6,3.2,6.2,5.4l2.7-1.8c-1.9-2.6-4.4-4.8-7.3-6.4c-3.4-1.9-7.1-2.9-11.2-2.9
	c-3.2,0-6.3,0.6-9.1,1.8c-2.8,1.2-5.3,2.9-7.3,5c-2.1,2.1-3.7,4.6-4.9,7.4c-1.2,2.8-1.8,5.8-1.8,9c0,3.2,0.6,6.2,1.8,9
	c1.2,2.8,2.9,5.3,4.9,7.4c2.1,2.1,4.5,3.8,7.3,5c2.8,1.2,5.8,1.8,9.1,1.8c3.1,0,6.1-0.6,8.9-1.8c2.8-1.2,5.2-2.8,7.3-4.8
	C245.2,38.4,246.9,36,248.1,33.2z"/>
<path fill="#4AA946" d="M282.7,45.9h4.1l-12.4-17l2.5-0.4c1.6-0.2,3.1-0.7,4.5-1.5c1.4-0.8,2.6-1.7,3.6-2.9c1-1.2,1.8-2.5,2.4-4
	c0.6-1.5,0.9-3.1,0.9-4.8c0-1.8-0.4-3.5-1-5.1c-0.7-1.6-1.7-3.1-2.9-4.3c-1.2-1.2-2.6-2.2-4.3-2.9C278.5,2.3,276.8,2,275,2h-18.5
	v43.9h3.3V28.6H270L282.7,45.9z M259.8,5.1H275c1.4,0,2.7,0.3,3.9,0.8c1.2,0.5,2.3,1.3,3.2,2.2c0.9,0.9,1.6,2,2.1,3.2
	c0.5,1.2,0.7,2.6,0.7,3.9s-0.3,2.7-0.7,3.9c-0.5,1.2-1.2,2.3-2.1,3.2c-0.9,0.9-2,1.7-3.2,2.2c-1.2,0.5-2.5,0.8-3.9,0.8h-15.2V5.1z"
	/>
<path fill="#4AA946" d="M325.5,32.4l5.7,13.5h3.4L316.1,2H312l-18.5,43.9h3.4l5.6-13.5H325.5z M314.1,5.2l10.1,24h-20.3L314.1,5.2z"
	/>
<polygon fill="#4AA946" points="374.7,45.9 374.7,2 371.3,2 371.3,41 345.6,2 341.7,2 341.7,45.9 345,45.9 345,6.8 370.8,45.9 "/>
<polygon fill="#4AA946" points="412.2,2 381,2 381,4.9 395,4.9 395,45.9 398.3,45.9 398.3,4.9 412.2,4.9 "/>
</svg>
