<?xml version="1.0" encoding="utf-8"?>
<!-- Generator: Adobe Illustrator 15.0.0, SVG Export Plug-In . SVG Version: 6.00 Build 0)  -->
<!DOCTYPE svg PUBLIC "-//W3C//DTD SVG 1.1//EN" "http://www.w3.org/Graphics/SVG/1.1/DTD/svg11.dtd">
<svg version="1.1" id="Layer_1" xmlns="http://www.w3.org/2000/svg" xmlns:xlink="http://www.w3.org/1999/xlink" x="0px" y="0px"
	 width="1200px" height="600px" viewBox="164.5 200.5 1200 600" enable-background="new 164.5 200.5 1200 600" xml:space="preserve"
	>
<rect x="164.5" y="200.5" fill="#333333" width="1200" height="600"/>
<path fill="#F06022" d="M450.821,380.874c-2.474-1.345-4.122-1.821-7.072-1.171l-7.549,1.605c-2.994,0.65-4.296,1.735-5.987,3.948
	c-2.257,2.95-2.69,4.425-2.257,6.378l3.818,17.961c0.434,1.996,1.389,3.124,4.686,4.902c2.474,1.346,4.122,1.822,7.072,1.172
	l7.549-1.605c2.994-0.65,4.296-1.735,5.987-3.948c2.256-2.95,2.69-4.425,2.256-6.377l-3.817-17.962
	C455.073,383.781,454.075,382.653,450.821,380.874z M384.787,339.268c-0.391-1.779-0.607-3.298-2.126-4.209l-4.339-2.386
	c-1.432-0.825-3.341-0.521-4.815-0.217l-8.026,1.691c-1.779,0.391-3.254,0.694-4.643,2.126l-2.776,3.081
	c-0.998,1.128-1.648,1.995-1.041,4.772l1.432,6.725l27.55-5.857L384.787,339.268z M437.067,316.663l-20.435,4.339l12.886,10.412
	L437.067,316.663z M470.735,309.504l-21.26,4.513c-0.26,0.824-0.737,1.648-1.128,2.517l-10.933,20.348l18.222,14.144
	c1.389,1.172,2.863,2.213,3.211,3.992c0.563,2.689-1.042,5.38-3.688,5.987c-2.864,0.607-5.381-1.866-7.507-3.602l-15.271-12.321
	l-8.938,17.441c-1.258,2.43-2.517,5.727-5.38,6.334c-2.689,0.564-5.25-1.258-5.813-3.948c-0.391-1.778,0.521-3.341,1.345-4.945
	l10.934-20.349l-18.223-14.144c-0.737-0.607-1.432-1.172-2.039-1.822l-16.27,3.471c4.165,2.474,5.423,5.857,6.465,10.717
	l1.604,7.636c1.172,5.466,0.607,7.245-5.032,8.417l-30.544,6.508l0.694,3.167c0.174,0.911,1.128,1.952,1.996,2.473l2.906,2.083
	c1.562,1.128,3.558,1.128,6.725,0.434l20.436-4.339c3.167-0.694,6.681-0.694,7.549,3.385c0.867,4.165-2.776,5.553-5.51,6.16
	l-22.604,4.816c-3.948,0.824-5.554,1.171-9.067-0.781l-4.816-2.689c-2.082-1.215-3.558-2.257-4.599-3.602l3.514,16.53
	c0.868-0.174,1.779-0.348,2.604-0.521c3.861-0.824,5.423,2.082,6.074,5.25l0.261,1.171l1.519-2.082
	c1.995-2.69,5.032-7.072,7.679-7.637l6.552-1.388c2.299-0.478,5.856,1.258,8.851,2.689l6.682,3.254
	c6.465,3.167,7.549,5.771,8.98,12.495l2.17,10.196c1.475,6.854,1.519,9.545-3.124,15.055l-4.772,5.771
	c-1.648,1.996-4.165,5.337-6.725,5.9l-6.509,1.302c-4.251,0.911-6.854-1.432-10.499-3.688l-2.256-1.389l4.078,19.133
	c0.694,3.254,0.694,6.682-3.384,7.55c-0.781,0.173-1.605,0.391-2.474,0.563c2.039,5.597,7.939,8.981,13.971,7.723l112.283-23.862
	c6.551-1.388,10.76-7.853,9.371-14.404L485.14,318.876C483.751,312.324,477.286,308.116,470.735,309.504z M468.826,401.699
	c1.345,6.248,0.26,8.981-3.818,14.188c-4.078,5.207-5.9,6.421-11.931,7.723l-7.549,1.605c-6.031,1.302-8.2,0.911-14.058-2.213
	c-5.857-3.123-7.939-5.163-9.241-11.41l-3.818-17.962c-1.345-6.334-0.521-8.808,3.428-13.667c3.818-4.858,5.684-6.812,12.365-8.199
	l7.549-1.605c6.639-1.432,9.154-0.391,14.621,2.473c5.597,2.864,7.332,4.772,8.678,11.107L468.826,401.699z M387.434,429.684
	l2.474-0.521c1.301-0.261,2.169-1.389,2.906-2.386l5.857-7.463c1.215-1.605,1.475-2.82,1.085-4.599l-2.69-12.799
	c-0.391-1.779-1.128-2.777-2.863-3.731l-8.417-4.426c-1.041-0.606-2.343-1.258-3.645-0.997l-2.473,0.521
	c-1.389,0.304-2.69,2.43-3.471,3.644l-4.729,6.899c-1.562,2.299-2.039,3.558-1.605,5.64l1.996,9.328
	c0.304,1.389,1.085,3.08,2.256,3.774l8.677,5.293C384.483,428.946,386.263,429.944,387.434,429.684z"/>
<text transform="matrix(1 0 0 1 529.8623 441.7666)" fill="#DDDDDD" font-family="'Blanch-CondensedInline'" font-size="168.3763">software expo</text>
<text transform="matrix(1 0 0 1 594.8623 301.5117)" fill="#999999" font-family="'Blanch-Caps'" font-size="85.2464">Welcome to the</text>
<text transform="matrix(1 0 0 1 625.0029 552.5117)" fill="#AAAAAA" stroke="#AAAAAA" font-family="'Blanch-CondensedLight'" font-size="60">brought to you by</text>
<g>
	<g>
		<path fill="#999999" d="M405.77,625.436h2.975v21.252h-2.975V625.436z"/>
		<path fill="#999999" d="M474.91,625.436h2.832v21.252h-2.549l-14.168-16.436v16.436h-2.834v-21.252h2.408l14.311,16.575V625.436z"
			/>
		<path fill="#999999" d="M545.041,641.729v3.399c-2.268,1.275-4.818,1.842-7.793,1.842c-2.408,0-4.393-0.425-6.092-1.417
			c-1.701-0.99-2.977-2.267-3.967-3.967c-0.992-1.7-1.418-3.542-1.418-5.384c0-3.117,1.135-5.667,3.26-7.792
			s4.959-3.117,8.217-3.117c2.266,0,4.676,0.567,7.508,1.7v3.259c-2.549-1.417-4.959-2.125-7.225-2.125
			c-2.408,0-4.393,0.708-6.092,2.268c-1.559,1.558-2.408,3.399-2.408,5.808c0,2.267,0.85,4.251,2.408,5.809
			c1.559,1.56,3.543,2.268,6.092,2.268C540.082,644.136,542.631,643.286,545.041,641.729z"/>
		<path fill="#999999" d="M603.553,625.151c3.258,0,5.951,0.992,8.217,3.117c2.125,2.126,3.26,4.676,3.26,7.793
			c0,3.115-1.135,5.667-3.26,7.792c-2.266,1.982-4.959,3.116-8.357,3.116c-3.258,0-5.811-0.991-8.076-3.116
			c-2.125-2.125-3.258-4.677-3.258-7.792c0-3.117,1.133-5.81,3.258-7.935C597.602,626.144,600.295,625.151,603.553,625.151z
			 M603.695,627.985c-2.408,0-4.393,0.708-5.951,2.267s-2.408,3.4-2.408,5.81c0,2.266,0.85,4.25,2.408,5.667
			s3.543,2.267,5.951,2.267s4.393-0.709,5.949-2.267c1.561-1.56,2.41-3.542,2.41-5.81c0-2.267-0.85-4.108-2.41-5.667
			C607.945,628.835,606.104,627.985,603.695,627.985z"/>
		<path fill="#999999" d="M663.342,646.688v-21.252h5.383c2.125,0,3.826,0.565,5.102,1.558c1.275,1.134,1.842,2.55,1.842,4.392
			c0,1.275-0.283,2.268-0.992,3.26c-0.566,0.85-1.559,1.558-2.691,1.982c0.707,0.425,1.275,0.992,1.982,1.842
			c0.709,0.708,1.559,2.125,2.693,3.968c0.709,1.274,1.273,2.126,1.842,2.691l1.133,1.56h-3.684l-0.992-1.417
			c0,0-0.143-0.143-0.143-0.284l-0.564-0.851l-0.992-1.558l-0.992-1.7c-0.566-0.85-1.275-1.559-1.701-2.126
			c-0.566-0.565-0.99-0.85-1.416-1.133s-1.133-0.283-2.125-0.283h-0.85v9.209h-2.834V646.688z M667.309,627.985h-0.85v6.659h1.133
			c1.559,0,2.551-0.143,3.117-0.426c0.566-0.282,0.992-0.709,1.275-1.134c0.283-0.565,0.426-1.133,0.426-1.841
			c0-0.709-0.143-1.276-0.568-1.842c-0.424-0.567-0.85-0.992-1.557-1.134C669.857,628.127,668.867,627.985,667.309,627.985z"/>
		<path fill="#999999" d="M726.389,646.688v-21.252h6.801c1.984,0,3.684,0.565,4.816,1.699c1.275,1.134,1.842,2.551,1.842,4.393
			c0,1.274-0.283,2.267-0.992,3.258c-0.564,0.992-1.416,1.701-2.549,2.126s-2.551,0.708-4.676,0.708h-2.268v9.209h-2.975V646.688z
			 M732.48,628.127h-3.117v6.658h3.4c1.275,0,2.125-0.283,2.834-0.849c0.709-0.567,0.992-1.417,0.992-2.552
			C736.59,629.26,735.314,628.127,732.48,628.127z"/>
		<path fill="#999999" d="M797.229,625.151c3.258,0,5.949,0.992,8.217,3.117c2.125,2.126,3.258,4.676,3.258,7.793
			c0,3.115-1.133,5.667-3.258,7.792c-2.268,1.982-4.959,3.116-8.359,3.116c-3.26,0-5.809-0.991-8.076-3.116
			c-2.125-2.125-3.258-4.677-3.258-7.792c0-3.117,1.133-5.81,3.258-7.935C791.277,626.144,793.969,625.151,797.229,625.151z
			 M797.369,627.985c-2.408,0-4.393,0.708-5.949,2.267c-1.561,1.559-2.41,3.4-2.41,5.81c0,2.266,0.85,4.25,2.41,5.667
			c1.557,1.417,3.541,2.267,5.949,2.267s4.393-0.709,5.951-2.267c1.559-1.56,2.408-3.542,2.408-5.81c0-2.267-0.85-4.108-2.408-5.667
			C801.619,628.835,799.637,627.985,797.369,627.985z"/>
		<path fill="#999999" d="M857.016,646.688v-21.252h5.385c2.125,0,3.824,0.565,5.1,1.558c1.275,1.134,1.842,2.55,1.842,4.392
			c0,1.275-0.283,2.268-0.99,3.26c-0.568,0.85-1.561,1.558-2.693,1.982c0.709,0.425,1.275,0.992,1.984,1.842
			c0.709,0.708,1.559,2.125,2.691,3.968c0.707,1.274,1.275,2.126,1.842,2.691l1.133,1.56h-3.684l-0.99-1.417
			c0,0-0.143-0.143-0.143-0.284l-0.566-0.851l-0.992-1.558l-0.992-1.7c-0.566-0.85-1.133-1.559-1.699-2.126
			c-0.566-0.565-0.992-0.85-1.418-1.133c-0.424-0.283-1.133-0.283-2.125-0.283h-0.85v9.209h-2.834V646.688z M860.982,627.985h-0.85
			v6.659h1.135c1.557,0,2.549-0.143,3.117-0.426c0.564-0.282,0.99-0.709,1.273-1.134c0.283-0.565,0.426-1.133,0.426-1.841
			c0-0.709-0.143-1.276-0.566-1.842c-0.426-0.567-0.852-0.992-1.561-1.134C863.25,628.127,862.4,627.985,860.982,627.985z"/>
		<path fill="#999999" d="M926.863,625.293h2.125l9.494,21.395h-3.117l-2.834-6.234h-9.068l-2.691,6.234h-3.117L926.863,625.293z
			 M931.398,637.619l-3.402-7.651l-3.117,7.651H931.398z"/>
		<path fill="#999999" d="M980.418,625.436h17.709v2.691h-7.367v18.561h-3.115v-18.561h-7.227V625.436L980.418,625.436z"/>
		<path fill="#999999" d="M1045.449,625.436h12.043v2.691h-9.068v6.518h8.643v2.691h-8.643v6.659h9.352v2.692h-12.326V625.436z"/>
		<path fill="#999999" d="M1105.52,646.688v-21.252h7.227c2.834,0,5.242,0.425,6.801,1.274c1.699,0.851,2.975,2.125,3.967,3.825
			s1.559,3.542,1.559,5.526c0,1.417-0.283,2.833-0.852,4.107c-0.564,1.276-1.273,2.409-2.408,3.401
			c-0.99,0.992-2.266,1.841-3.541,2.266c-0.85,0.284-1.559,0.567-2.268,0.567c-0.707,0.142-1.984,0.142-3.824,0.142h-6.66V646.688z
			 M1112.322,628.127h-3.826v15.868h3.967c1.557,0,2.691-0.142,3.541-0.284c0.85-0.141,1.559-0.425,2.125-0.85
			c0.568-0.283,1.135-0.708,1.559-1.133c1.559-1.56,2.268-3.401,2.268-5.81c0-2.267-0.709-4.108-2.268-5.524
			c-0.566-0.567-1.273-0.992-1.982-1.276c-0.709-0.283-1.418-0.567-2.125-0.708C1114.871,628.127,1113.738,628.127,1112.322,628.127
			z"/>
	</g>
	<g>
		<path fill="#DDDDDD" d="M414.838,597.524l-4.252-2.55c-2.689-1.56-4.531-3.26-5.666-4.817c-1.133-1.559-1.559-3.259-1.559-5.243
			c0-2.975,0.992-5.524,3.117-7.367c2.125-1.842,4.959-2.975,8.217-2.975c3.26,0,6.234,0.85,8.926,2.692v6.233
			c-2.834-2.691-5.809-3.967-8.926-3.967c-1.842,0-3.258,0.425-4.391,1.275c-1.135,0.85-1.844,1.982-1.844,3.259
			c0,1.133,0.426,2.266,1.275,3.258s2.268,2.125,4.109,3.117l4.252,2.55c4.674,2.834,7.082,6.376,7.082,10.768
			c0,3.117-0.99,5.667-3.117,7.51c-2.125,1.842-4.816,2.975-8.074,2.975c-3.826,0-7.227-1.133-10.486-3.542v-7.084
			c2.977,3.826,6.52,5.667,10.344,5.667c1.699,0,3.117-0.425,4.393-1.416c1.133-0.992,1.699-2.126,1.699-3.684
			C419.938,601.916,418.238,599.649,414.838,597.524z"/>
		<path fill="#DDDDDD" d="M459.324,574.572c5.951,0,10.91,1.842,14.877,5.667c3.967,3.826,5.951,8.501,5.951,14.168
			s-1.984,10.484-5.951,14.168c-3.967,3.683-9.068,5.667-15.16,5.667c-5.809,0-10.625-1.842-14.592-5.667
			c-3.826-3.684-5.809-8.359-5.809-14.026c0-5.809,1.982-10.483,5.809-14.31C448.416,576.414,453.373,574.572,459.324,574.572z
			 M459.465,579.814c-4.391,0-8.074,1.417-10.908,4.108c-2.832,2.692-4.25,6.234-4.25,10.626c0,4.108,1.418,7.65,4.25,10.343
			c2.834,2.834,6.377,4.108,10.768,4.108c4.25,0,7.934-1.417,10.768-4.25c2.834-2.834,4.393-6.376,4.393-10.484
			s-1.416-7.51-4.393-10.343C467.258,581.231,463.717,579.814,459.465,579.814z"/>
		<path fill="#DDDDDD" d="M496.16,575.14h20.545v4.959h-15.018v10.767h15.018v4.959h-15.018v17.993h-5.527V575.14z"/>
		<path fill="#DDDDDD" d="M528.463,575.14h32.303v4.959h-13.459v33.719h-5.525v-33.861h-13.318V575.14z"/>
		<path fill="#DDDDDD" d="M624.238,575.14h5.525l-15.584,38.819h-1.275l-12.609-31.453l-12.752,31.453h-1.133l-15.584-38.819h5.523
			l10.627,26.635l10.768-26.635h5.242l10.768,26.635L624.238,575.14z"/>
		<path fill="#DDDDDD" d="M650.875,574.855h3.824l17.285,38.819h-5.668l-5.1-11.476h-16.434l-4.818,11.476h-5.668L650.875,574.855z
			 M659.092,597.382l-6.234-14.025l-5.809,14.025H659.092z"/>
		<path fill="#DDDDDD" d="M685.586,613.817V575.14h9.633c3.967,0,7.084,0.99,9.352,2.975s3.4,4.534,3.4,7.792
			c0,2.267-0.568,4.251-1.701,5.809c-1.133,1.7-2.691,2.834-4.816,3.685c1.275,0.85,2.408,1.982,3.684,3.258
			c1.133,1.417,2.834,3.826,4.959,7.368c1.416,2.125,2.408,3.825,3.258,4.959l1.984,2.833h-6.518l-1.699-2.55
			c0-0.143-0.143-0.283-0.283-0.426l-1.135-1.559l-1.699-2.833l-1.842-2.975c-1.135-1.56-2.125-2.834-3.117-3.826
			s-1.842-1.56-2.551-1.983c-0.707-0.425-2.125-0.566-3.824-0.566h-1.418v16.859h-5.666V613.817z M692.811,579.814h-1.701v12.184
			h2.125c2.834,0,4.678-0.283,5.811-0.708c0.992-0.425,1.842-1.133,2.408-2.125s0.85-2.125,0.85-3.259
			c0-1.275-0.283-2.266-0.992-3.258c-0.707-0.992-1.557-1.7-2.689-2.125C697.486,580.099,695.502,579.814,692.811,579.814z"/>
		<path fill="#DDDDDD" d="M837.465,575.14h5.242v38.678h-4.816l-25.787-29.752v29.752h-5.242V575.14h4.535l26.068,30.034V575.14z"/>
		<path fill="#DDDDDD" d="M880.959,594.691h13.035v16.434c-4.816,2.125-9.492,3.117-14.168,3.117
			c-6.375,0-11.475-1.842-15.301-5.667c-3.826-3.684-5.809-8.359-5.809-13.884c0-5.811,1.982-10.626,5.949-14.452
			c3.969-3.825,8.928-5.808,14.877-5.808c2.125,0,4.25,0.281,6.234,0.708c1.984,0.425,4.391,1.274,7.367,2.55v5.667
			c-4.676-2.692-9.209-3.967-13.744-3.967c-4.25,0-7.791,1.417-10.625,4.251c-2.834,2.833-4.391,6.375-4.391,10.625
			c0,4.392,1.416,7.934,4.391,10.768c2.834,2.834,6.66,4.109,11.193,4.109c2.266,0,4.816-0.567,7.934-1.56l0.566-0.141v-8.076h-7.51
			V594.691L880.959,594.691z"/>
		<path fill="#DDDDDD" d="M911.139,575.14h5.523v38.678h-5.523V575.14z"/>
		<path fill="#DDDDDD" d="M964.977,575.14h5.24v38.678H965.4l-25.785-29.752v29.752h-5.242V575.14h4.533l26.07,30.034V575.14z"/>
		<path fill="#DDDDDD" d="M987.645,575.14h21.959v4.959h-16.436v11.759h15.869v4.959h-15.869v12.042h16.861v4.959h-22.385V575.14z"
			/>
		<path fill="#DDDDDD" d="M1025.047,575.14h21.959v4.959h-16.434v11.759h15.869v4.959h-15.869v12.042h16.859v4.959h-22.385V575.14z"
			/>
		<path fill="#DDDDDD" d="M1062.592,613.817V575.14h9.633c3.969,0,7.084,0.99,9.352,2.975s3.4,4.534,3.4,7.792
			c0,2.267-0.566,4.251-1.699,5.809c-1.135,1.7-2.693,2.834-4.818,3.685c1.275,0.85,2.41,1.982,3.684,3.258
			c1.135,1.417,2.834,3.826,4.959,7.368c1.416,2.125,2.408,3.825,3.26,4.959l1.982,2.833h-6.516l-1.701-2.55
			c0-0.143-0.141-0.283-0.283-0.426l-1.135-1.559l-1.699-2.833l-1.842-2.975c-1.133-1.56-2.125-2.834-3.117-3.826
			s-1.842-1.56-2.551-1.983c-0.707-0.425-2.125-0.566-3.824-0.566h-1.418v16.859h-5.666V613.817z M1069.818,579.814h-1.701v12.184
			h2.125c2.834,0,4.676-0.283,5.809-0.708c0.992-0.425,1.842-1.133,2.408-2.125c0.568-0.992,0.85-2.125,0.85-3.259
			c0-1.275-0.281-2.266-0.99-3.258s-1.559-1.7-2.691-2.125C1074.492,580.099,1072.51,579.814,1069.818,579.814z"/>
		<path fill="#DDDDDD" d="M1115.297,597.524l-4.252-2.55c-2.691-1.56-4.533-3.26-5.666-4.817c-1.133-1.559-1.701-3.401-1.701-5.384
			c0-2.977,0.992-5.526,3.117-7.367c2.125-1.842,4.818-2.834,8.217-2.834c3.26,0,6.234,0.85,8.926,2.692v6.233
			c-2.834-2.691-5.809-3.967-8.926-3.967c-1.842,0-3.258,0.425-4.391,1.275c-1.133,0.85-1.701,1.982-1.701,3.259
			c0,1.133,0.426,2.266,1.275,3.258s2.268,2.125,4.109,3.117l4.25,2.55c4.674,2.834,7.084,6.376,7.084,10.768
			c0,3.117-0.992,5.667-3.117,7.51c-2.125,1.842-4.816,2.975-8.074,2.975c-3.826,0-7.369-1.133-10.486-3.542v-7.084
			c2.975,3.826,6.518,5.667,10.344,5.667c1.699,0,3.117-0.425,4.393-1.416c1.133-0.992,1.699-2.126,1.699-3.684
			C1120.396,601.916,1118.697,599.649,1115.297,597.524z"/>
	</g>
	<path fill="#F06022" d="M790.285,596.816v-4.959h-8.357v4.959H790.285z M774.418,608.858v-28.76h16.434v-4.959h-21.959v38.535
		h22.385v-4.959h-16.859V608.858z"/>
	<path fill="#F06022" d="M735.738,596.816v-4.959h-8.357v4.959H735.738z M726.248,608.858v4.959h22.385V575.14h-21.961v4.959h16.434
		v28.76H726.248z"/>
</g>
</svg>
