<?xml version="1.0" encoding="utf-8"?>
<!-- Generator: Adobe Illustrator 15.0.0, SVG Export Plug-In  -->
<!DOCTYPE svg PUBLIC "-//W3C//DTD SVG 1.1//EN" "http://www.w3.org/Graphics/SVG/1.1/DTD/svg11.dtd" [
	<!ENTITY ns_flows "http://ns.adobe.com/Flows/1.0/">
]>
<svg version="1.1"
	 xmlns="http://www.w3.org/2000/svg" xmlns:xlink="http://www.w3.org/1999/xlink" xmlns:a="http://ns.adobe.com/AdobeSVGViewerExtensions/3.0/"
	 x="0px" y="0px" width="510px" height="51px" viewBox="0 0 510 51" overflow="visible" enable-background="new 0 0 510 51"
	 xml:space="preserve">
<defs>
</defs>
<path fill="#4D4D4D" d="M8.1,16.2l-3-1.8c-1.9-1.1-3.2-2.3-4-3.4S0,8.7,0,7.3c0-2.1,0.7-3.9,2.2-5.2S5.7,0,8,0
	c2.3,0,4.4,0.6,6.3,1.9v4.4c-2-1.9-4.1-2.8-6.3-2.8c-1.3,0-2.3,0.3-3.1,0.9S3.6,5.8,3.6,6.7c0,0.8,0.3,1.6,0.9,2.3s1.6,1.5,2.9,2.2
	l3,1.8c3.3,2,5,4.5,5,7.6c0,2.2-0.7,4-2.2,5.3S9.8,28,7.5,28c-2.7,0-5.1-0.8-7.4-2.5v-5c2.1,2.7,4.6,4,7.3,4c1.2,0,2.2-0.3,3.1-1
	c0.8-0.7,1.2-1.5,1.2-2.6C11.7,19.3,10.5,17.7,8.1,16.2z"/>
<path fill="#4D4D4D" d="M39.5,0c4.2,0,7.7,1.3,10.5,4c2.8,2.7,4.2,6,4.2,10s-1.4,7.4-4.2,10c-2.8,2.6-6.4,4-10.7,4
	c-4.1,0-7.5-1.3-10.3-4c-2.7-2.6-4.1-5.9-4.1-9.9C24.9,10,26.3,6.7,29,4C31.8,1.3,35.3,0,39.5,0z M39.6,3.7c-3.1,0-5.7,1-7.7,2.9
	s-3,4.4-3,7.5c0,2.9,1,5.4,3,7.3c2,2,4.5,2.9,7.6,2.9c3,0,5.6-1,7.6-3c2-2,3.1-4.5,3.1-7.4c0-2.9-1-5.3-3.1-7.3
	C45.1,4.7,42.6,3.7,39.6,3.7z"/>
<path fill="#4D4D4D" d="M65.5,0.4H80v3.5H69.4v7.6H80V15H69.4v12.7h-3.9V0.4z"/>
<path fill="#4D4D4D" d="M88.3,0.4h22.8v3.5h-9.5v23.8h-3.9V3.8h-9.4V0.4z"/>
<path fill="#4D4D4D" d="M155.9,0.4h3.9l-11,27.4h-0.9L139,5.6l-9,22.2h-0.8l-11-27.4h3.9l7.5,18.8l7.6-18.8h3.7l7.6,18.8L155.9,0.4z
	"/>
<path fill="#4D4D4D" d="M174.7,0.2h2.7l12.2,27.4h-4l-3.6-8.1h-11.6l-3.4,8.1h-4L174.7,0.2z M180.5,16.1l-4.4-9.9l-4.1,9.9H180.5z"
	/>
<path fill="#4D4D4D" d="M199.2,27.7V0.4h6.8c2.8,0,5,0.7,6.6,2.1s2.4,3.2,2.4,5.5c0,1.6-0.4,3-1.2,4.1c-0.8,1.2-1.9,2-3.4,2.6
	c0.9,0.6,1.7,1.4,2.6,2.3c0.8,1,2,2.7,3.5,5.2c1,1.5,1.7,2.7,2.3,3.5l1.4,2h-4.6l-1.2-1.8c0-0.1-0.1-0.2-0.2-0.3l-0.8-1.1l-1.2-2
	l-1.3-2.1c-0.8-1.1-1.5-2-2.2-2.7c-0.7-0.7-1.3-1.1-1.8-1.4c-0.5-0.3-1.5-0.4-2.7-0.4h-1v11.9H199.2z M204.3,3.7h-1.2v8.6h1.5
	c2,0,3.3-0.2,4.1-0.5c0.7-0.3,1.3-0.8,1.7-1.5s0.6-1.5,0.6-2.3c0-0.9-0.2-1.6-0.7-2.3c-0.5-0.7-1.1-1.2-1.9-1.5
	C207.6,3.9,206.2,3.7,204.3,3.7z"/>
<path fill="#7E7E7E" d="M1.7,35.9h2.1v15H1.7V35.9z"/>
<path fill="#7E7E7E" d="M50.5,35.9h2v15h-1.8l-10-11.6v11.6h-2v-15h1.7l10.1,11.7V35.9z"/>
<path fill="#7E7E7E" d="M100,47.4v2.4c-1.6,0.9-3.4,1.3-5.5,1.3c-1.7,0-3.1-0.3-4.3-1c-1.2-0.7-2.1-1.6-2.8-2.8
	c-0.7-1.2-1-2.5-1-3.8c0-2.2,0.8-4,2.3-5.5s3.5-2.2,5.8-2.2c1.6,0,3.3,0.4,5.3,1.2v2.3c-1.8-1-3.5-1.5-5.1-1.5
	c-1.7,0-3.1,0.5-4.3,1.6c-1.1,1.1-1.7,2.4-1.7,4.1c0,1.6,0.6,3,1.7,4.1c1.1,1.1,2.5,1.6,4.3,1.6C96.5,49.1,98.3,48.5,100,47.4z"/>
<path fill="#7E7E7E" d="M141.3,35.7c2.3,0,4.2,0.7,5.8,2.2c1.5,1.5,2.3,3.3,2.3,5.5s-0.8,4-2.3,5.5c-1.6,1.4-3.5,2.2-5.9,2.2
	c-2.3,0-4.1-0.7-5.7-2.2c-1.5-1.5-2.3-3.3-2.3-5.5c0-2.2,0.8-4.1,2.3-5.6C137.1,36.4,139,35.7,141.3,35.7z M141.4,37.7
	c-1.7,0-3.1,0.5-4.2,1.6s-1.7,2.4-1.7,4.1c0,1.6,0.6,3,1.7,4s2.5,1.6,4.2,1.6c1.7,0,3.1-0.5,4.2-1.6c1.1-1.1,1.7-2.5,1.7-4.1
	c0-1.6-0.6-2.9-1.7-4C144.4,38.3,143.1,37.7,141.4,37.7z"/>
<path fill="#7E7E7E" d="M183.5,50.9v-15h3.8c1.5,0,2.7,0.4,3.6,1.1c0.9,0.8,1.3,1.8,1.3,3.1c0,0.9-0.2,1.6-0.7,2.3
	c-0.4,0.6-1.1,1.1-1.9,1.4c0.5,0.3,0.9,0.7,1.4,1.3c0.5,0.5,1.1,1.5,1.9,2.8c0.5,0.9,0.9,1.5,1.3,1.9l0.8,1.1h-2.6l-0.7-1
	c0,0-0.1-0.1-0.1-0.2l-0.4-0.6l-0.7-1.1l-0.7-1.2c-0.4-0.6-0.9-1.1-1.2-1.5c-0.4-0.4-0.7-0.6-1-0.8s-0.8-0.2-1.5-0.2h-0.6v6.5H183.5
	z M186.3,37.7h-0.6v4.7h0.8c1.1,0,1.8-0.1,2.2-0.3c0.4-0.2,0.7-0.5,0.9-0.8c0.2-0.4,0.3-0.8,0.3-1.3c0-0.5-0.1-0.9-0.4-1.3
	s-0.6-0.7-1.1-0.8C188.1,37.8,187.4,37.7,186.3,37.7z"/>
<path fill="#7E7E7E" d="M228,50.9v-15h4.8c1.4,0,2.6,0.4,3.4,1.2c0.9,0.8,1.3,1.8,1.3,3.1c0,0.9-0.2,1.6-0.7,2.3
	c-0.4,0.7-1,1.2-1.8,1.5c-0.8,0.3-1.8,0.5-3.3,0.5h-1.6v6.5H228z M232.3,37.8h-2.2v4.7h2.4c0.9,0,1.5-0.2,2-0.6s0.7-1,0.7-1.8
	C235.2,38.6,234.3,37.8,232.3,37.8z"/>
<path fill="#7E7E7E" d="M278,35.7c2.3,0,4.2,0.7,5.8,2.2c1.5,1.5,2.3,3.3,2.3,5.5s-0.8,4-2.3,5.5c-1.6,1.4-3.5,2.2-5.9,2.2
	c-2.3,0-4.1-0.7-5.7-2.2c-1.5-1.5-2.3-3.3-2.3-5.5c0-2.2,0.8-4.1,2.3-5.6C273.8,36.4,275.7,35.7,278,35.7z M278.1,37.7
	c-1.7,0-3.1,0.5-4.2,1.6s-1.7,2.4-1.7,4.1c0,1.6,0.6,3,1.7,4s2.5,1.6,4.2,1.6c1.7,0,3.1-0.5,4.2-1.6c1.1-1.1,1.7-2.5,1.7-4.1
	c0-1.6-0.6-2.9-1.7-4C281.1,38.3,279.7,37.7,278.1,37.7z"/>
<path fill="#7E7E7E" d="M320.2,50.9v-15h3.8c1.5,0,2.7,0.4,3.6,1.1c0.9,0.8,1.3,1.8,1.3,3.1c0,0.9-0.2,1.6-0.7,2.3
	c-0.4,0.6-1.1,1.1-1.9,1.4c0.5,0.3,0.9,0.7,1.4,1.3c0.5,0.5,1.1,1.5,1.9,2.8c0.5,0.9,0.9,1.5,1.3,1.9l0.8,1.1h-2.6l-0.7-1
	c0,0-0.1-0.1-0.1-0.2l-0.4-0.6l-0.7-1.1l-0.7-1.2c-0.4-0.6-0.8-1.1-1.2-1.5c-0.4-0.4-0.7-0.6-1-0.8c-0.3-0.2-0.8-0.2-1.5-0.2h-0.6
	v6.5H320.2z M323,37.7h-0.6v4.7h0.8c1.1,0,1.8-0.1,2.2-0.3c0.4-0.2,0.7-0.5,0.9-0.8c0.2-0.4,0.3-0.8,0.3-1.3c0-0.5-0.1-0.9-0.4-1.3
	c-0.3-0.4-0.6-0.7-1.1-0.8S324,37.7,323,37.7z"/>
<path fill="#7E7E7E" d="M369.5,35.8h1.5l6.7,15.1h-2.2l-2-4.4h-6.4l-1.9,4.4h-2.2L369.5,35.8z M372.7,44.5l-2.4-5.4l-2.2,5.4H372.7z
	"/>
<path fill="#7E7E7E" d="M407.3,35.9h12.5v1.9h-5.2v13.1h-2.2V37.8h-5.1V35.9z"/>
<path fill="#7E7E7E" d="M453.2,35.9h8.5v1.9h-6.4v4.6h6.1v1.9h-6.1V49h6.6v1.9h-8.7V35.9z"/>
<path fill="#7E7E7E" d="M495.6,50.9v-15h5.1c2,0,3.7,0.3,4.8,0.9c1.2,0.6,2.1,1.5,2.8,2.7c0.7,1.2,1.1,2.5,1.1,3.9
	c0,1-0.2,2-0.6,2.9c-0.4,0.9-0.9,1.7-1.7,2.4c-0.7,0.7-1.6,1.3-2.5,1.6c-0.6,0.2-1.1,0.4-1.6,0.4c-0.5,0.1-1.4,0.1-2.7,0.1H495.6z
	 M500.4,37.8h-2.7V49h2.8c1.1,0,1.9-0.1,2.5-0.2c0.6-0.1,1.1-0.3,1.5-0.6c0.4-0.2,0.8-0.5,1.1-0.8c1.1-1.1,1.6-2.4,1.6-4.1
	c0-1.6-0.5-2.9-1.6-3.9c-0.4-0.4-0.9-0.7-1.4-0.9s-1-0.4-1.5-0.5C502.2,37.8,501.4,37.8,500.4,37.8z"/>
<path fill="#4D4D4D" d="M306.4,0.4h3.7v27.3h-3.4l-18.2-21v21h-3.7V0.4h3.2l18.4,21.2V0.4z"/>
<path fill="#4D4D4D" d="M337.1,14.2h9.2v11.6c-3.4,1.5-6.7,2.2-10,2.2c-4.5,0-8.1-1.3-10.8-4c-2.7-2.6-4.1-5.9-4.1-9.8
	c0-4.1,1.4-7.5,4.2-10.2c2.8-2.7,6.3-4.1,10.5-4.1c1.5,0,3,0.2,4.4,0.5c1.4,0.3,3.1,0.9,5.2,1.8v4c-3.3-1.9-6.5-2.8-9.7-2.8
	c-3,0-5.5,1-7.5,3c-2,2-3.1,4.5-3.1,7.5c0,3.1,1,5.6,3.1,7.6c2,2,4.7,2.9,7.9,2.9c1.6,0,3.4-0.4,5.6-1.1l0.4-0.1v-5.7h-5.3V14.2z"/>
<path fill="#4D4D4D" d="M358.4,0.4h3.9v27.3h-3.9V0.4z"/>
<path fill="#4D4D4D" d="M396.4,0.4h3.7v27.3h-3.4l-18.2-21v21h-3.7V0.4h3.2l18.4,21.2V0.4z"/>
<path fill="#4D4D4D" d="M412.4,0.4h15.5v3.5h-11.6v8.3h11.2v3.5h-11.2v8.5h11.9v3.5h-15.8V0.4z"/>
<path fill="#4D4D4D" d="M438.8,0.4h15.5v3.5h-11.6v8.3h11.2v3.5h-11.2v8.5h11.9v3.5h-15.8V0.4z"/>
<path fill="#4D4D4D" d="M465.3,27.7V0.4h6.8c2.8,0,5,0.7,6.6,2.1s2.4,3.2,2.4,5.5c0,1.6-0.4,3-1.2,4.1c-0.8,1.2-1.9,2-3.4,2.6
	c0.9,0.6,1.7,1.4,2.6,2.3c0.8,1,2,2.7,3.5,5.2c1,1.5,1.7,2.7,2.3,3.5l1.4,2h-4.6l-1.2-1.8c0-0.1-0.1-0.2-0.2-0.3l-0.8-1.1l-1.2-2
	l-1.3-2.1c-0.8-1.1-1.5-2-2.2-2.7c-0.7-0.7-1.3-1.1-1.8-1.4c-0.5-0.3-1.5-0.4-2.7-0.4h-1v11.9H465.3z M470.4,3.7h-1.2v8.6h1.5
	c2,0,3.3-0.2,4.1-0.5c0.7-0.3,1.3-0.8,1.7-1.5s0.6-1.5,0.6-2.3c0-0.9-0.2-1.6-0.7-2.3c-0.5-0.7-1.1-1.2-1.9-1.5
	C473.7,3.9,472.3,3.7,470.4,3.7z"/>
<path fill="#4D4D4D" d="M502.5,16.2l-3-1.8c-1.9-1.1-3.2-2.3-4-3.4c-0.8-1.1-1.2-2.4-1.2-3.8c0-2.1,0.7-3.9,2.2-5.2
	c1.5-1.3,3.4-2,5.8-2c2.3,0,4.4,0.6,6.3,1.9v4.4c-2-1.9-4.1-2.8-6.3-2.8c-1.3,0-2.3,0.3-3.1,0.9S498,5.8,498,6.7
	c0,0.8,0.3,1.6,0.9,2.3c0.6,0.7,1.6,1.5,2.9,2.2l3,1.8c3.3,2,5,4.5,5,7.6c0,2.2-0.7,4-2.2,5.3s-3.4,2.1-5.7,2.1
	c-2.7,0-5.2-0.8-7.4-2.5v-5c2.1,2.7,4.6,4,7.3,4c1.2,0,2.2-0.3,3.1-1c0.8-0.7,1.2-1.5,1.2-2.6C506.1,19.3,504.9,17.7,502.5,16.2z"/>
<path fill="#F06022" d="M273.1,15.7v-3.5h-5.9v3.5H273.1z M261.9,24.2V3.9h11.6V0.4H258v27.2h15.8v-3.5H261.9z"/>
<path fill="#F06022" d="M234.6,15.7v-3.5h-5.9v3.5H234.6z M227.9,24.2v3.5h15.8V0.4h-15.5v3.5h11.6v20.3H227.9z"/>
</svg>
